<?xml version="1.0" encoding="UTF-8" standalone="no"?>
<!-- Created with Inkscape (http://www.inkscape.org/) -->

<svg
   xmlns:dc="http://purl.org/dc/elements/1.1/"
   xmlns:cc="http://creativecommons.org/ns#"
   xmlns:rdf="http://www.w3.org/1999/02/22-rdf-syntax-ns#"
   xmlns:svg="http://www.w3.org/2000/svg"
   xmlns="http://www.w3.org/2000/svg"
   xmlns:sodipodi="http://sodipodi.sourceforge.net/DTD/sodipodi-0.dtd"
   xmlns:inkscape="http://www.inkscape.org/namespaces/inkscape"
   id="svg2"
   version="1.1"
   inkscape:version="0.91 r13725"
   width="35.000401"
   height="35.000004"
   viewBox="0 0 35.000401 35.000004"
   sodipodi:docname="Screenshot from 2017-10-17 00-45-19.svg">
  <metadata
     id="metadata8">
    <rdf:RDF>
      <cc:Work
         rdf:about="">
        <dc:format>image/svg+xml</dc:format>
        <dc:type
           rdf:resource="http://purl.org/dc/dcmitype/StillImage" />
        <dc:title />
        <cc:license
           rdf:resource="http://creativecommons.org/publicdomain/zero/1.0/" />
      </cc:Work>
      <cc:License
         rdf:about="http://creativecommons.org/publicdomain/zero/1.0/">
        <cc:permits
           rdf:resource="http://creativecommons.org/ns#Reproduction" />
        <cc:permits
           rdf:resource="http://creativecommons.org/ns#Distribution" />
        <cc:permits
           rdf:resource="http://creativecommons.org/ns#DerivativeWorks" />
      </cc:License>
    </rdf:RDF>
  </metadata>
  <defs
     id="defs6" />
  <sodipodi:namedview
     pagecolor="#ffffff"
     bordercolor="#666666"
     borderopacity="1"
     objecttolerance="10"
     gridtolerance="10"
     guidetolerance="10"
     inkscape:pageopacity="0"
     inkscape:pageshadow="2"
     inkscape:window-width="1855"
     inkscape:window-height="1056"
     id="namedview4"
     showgrid="false"
     fit-margin-top="0"
     fit-margin-left="0"
     fit-margin-right="0"
     fit-margin-bottom="0"
     inkscape:zoom="16.269328"
     inkscape:cx="14.316512"
     inkscape:cy="11.823462"
     inkscape:window-x="65"
     inkscape:window-y="24"
     inkscape:window-maximized="1"
     inkscape:current-layer="svg2" />
  <path
     style="fill:#000000"
     d="M -0.01081984,0.06505065 C 11.732422,1.0552494 23.474703,1.027773 35.098215,0.05375121 35.077196,11.734129 35.063003,23.414516 35.048612,35.094903 L -0.01819095,35.0196 C 0.00620026,23.368084 -0.00339016,11.716575 -0.01081984,0.06505065 Z M 32.82757,4.078246 C 32.43469,3.626145 2.48222,3.591828 1.90773,4.042816 c 0,0 -0.5569647,18.829126 0.03881,29.08887 l 30.47298,0.28701 c 1.490096,-9.37964 0.40805,-29.34045 0.40805,-29.34045 z m -16.20147,27.7485 c -0.63027,-0.10065 -1.77443,-0.53638 -2.54257,-0.9683 -1.85734,-1.04436 -3.1319,-1.45502 -4.53104,-1.45989 -0.79418,-0.003 -1.31718,-0.17157 -1.6682,-0.53847 -0.28124,-0.29394 -0.75018,-0.53444 -1.04209,-0.53444 -0.30712,0 -0.77658,-0.39409 -1.11415,-0.93528 -0.32087,-0.51441 -0.6832,-0.93528 -0.80519,-0.93528 -0.52147,0 -1.41305,-2.93205 -1.58451,-5.21085 -0.47541,-6.31844 -0.48222,-6.08701 0.21744,-7.38517 1.01737,-1.88765 2.25577,-3.06871 3.43759,-3.27843 0.56769,-0.10073 1.03216,-0.26869 1.03216,-0.37324 0,-0.36762 2.41371,-2.71267 3.49929,-3.39975 1.06495,-0.67402 1.60273,-0.79095 5.05287,-1.09861 1.47615,-0.13164 1.75957,-0.0672 2.9902,0.67976 0.99387,0.60326 1.8469,0.87331 3.17191,1.00415 0.99684,0.0984 2.19382,0.39885 2.65996,0.66759 0.46614,0.26873 1.00643,0.48905 1.20066,0.4896 0.19422,5.6e-4 0.88679,0.50579 1.53904,1.12275 1.19074,1.12632 2.01698,3.00176 1.97807,4.48994 -0.0215,0.82247 0.63605,2.73438 1.24056,3.60706 0.49082,0.70855 0.44147,2.85964 -0.10969,4.78134 -0.27613,0.96278 -2.65331,3.63663 -3.23314,3.63663 -0.52903,0 -3.2232,2.27824 -3.75283,3.17346 -0.37584,0.63526 -0.81338,0.99799 -1.27162,1.05421 -0.38425,0.0471 -0.85414,0.27615 -1.0442,0.50892 -0.19006,0.23276 -0.88926,0.50802 -1.55379,0.61168 -0.66453,0.10366 -1.52605,0.25263 -1.9145,0.33105 -0.38845,0.0784 -1.22195,0.0602 -1.85223,-0.0404 z m 4.67731,-1.36215 c 0.23307,-0.26551 0.83969,-0.56489 1.34806,-0.6653 0.68278,-0.13486 1.02222,-0.40422 1.29903,-1.03087 0.20609,-0.46658 0.89304,-1.18808 1.52655,-1.60335 0.6335,-0.41527 1.22089,-0.92527 1.3053,-1.13335 0.0844,-0.20807 0.37836,-0.37831 0.65321,-0.37831 0.7511,0 3.2217,-2.69303 3.02056,-3.29249 -0.0899,-0.26781 0.0285,-0.68876 0.26303,-0.93543 0.58109,-0.61115 0.45962,-3.03702 -0.18248,-3.64437 -0.26154,-0.24739 -0.47552,-0.68962 -0.47552,-0.98273 0,-0.29311 -0.15626,-0.79558 -0.34724,-1.11661 -0.19099,-0.32103 -0.35787,-1.00456 -0.37085,-1.51896 -0.0363,-1.43869 -0.75935,-3.45737 -1.29605,-3.6185 -0.26284,-0.0789 -0.68288,-0.4394 -0.93343,-0.8011 -0.25056,-0.36171 -0.68973,-0.65764 -0.97595,-0.65764 -0.28623,0 -0.86072,-0.25321 -1.27665,-0.56268 -0.43614,-0.3245 -0.99008,-0.50483 -1.30868,-0.42603 -0.6603,0.16334 -3.49483,-0.50084 -4.33595,-1.01599 -1.18156,-0.72363 -3.19734,-1.03221 -4.19343,-0.64194 -0.50085,0.19623 -1.26313,0.32182 -1.69394,0.27907 -0.43083,-0.0427 -0.78331,0.037 -0.78331,0.17722 0,0.14022 -0.39124,0.40823 -0.86941,0.59558 -0.47818,0.18735 -1.08168,0.64708 -1.34112,1.02161 -0.25944,0.37454 -0.75811,0.95188 -1.10815,1.28298 -0.35004,0.3311 -0.63643,0.72227 -0.63643,0.86926 0,0.14699 -0.47299,0.35119 -1.05109,0.45378 -0.71146,0.12625 -1.39608,0.53647 -2.11881,1.26959 -0.58724,0.5957 -1.06772,1.19919 -1.06772,1.34109 0,0.1419 -0.17459,0.44785 -0.38799,0.67988 -0.6153,0.66904 -0.84463,3.53106 -0.33412,4.16986 0.2319,0.29017 0.42568,0.9263 0.43062,1.41362 0.005,0.48733 0.14493,1.12633 0.31109,1.42001 0.21974,0.38836 0.21071,0.63814 -0.0331,0.91602 -0.79102,0.90155 1.83508,5.46268 3.14518,5.46268 0.28657,0 0.65959,0.24488 0.82893,0.54417 0.23932,0.42298 0.57185,0.53807 1.49311,0.51676 1.72661,-0.04 3.00331,0.30651 4.37731,1.18786 1.48568,0.95298 2.78355,1.2241 5.00063,1.0446 1.15794,-0.0938 1.82932,-0.29021 2.11881,-0.61999 z m -6.49768,-0.89798 c -0.97831,-0.34926 -1.51955,-1.21227 -0.79761,-1.2718 0.20561,-0.0169 0.50097,-0.0588 0.65635,-0.0929 0.15538,-0.0341 0.50813,-0.0804 0.78389,-0.10278 0.27576,-0.0224 0.61928,-0.33402 0.76338,-0.69252 0.14409,-0.35849 0.50056,-0.77258 0.79214,-0.92018 0.74027,-0.37475 1.91219,-2.63705 1.99165,-3.84471 0.0365,-0.55414 -0.11746,-1.59278 -0.34203,-2.3081 -0.29978,-0.95483 -0.32476,-1.37962 -0.094,-1.5979 0.44199,-0.41808 1.19882,-0.36954 1.61387,0.10351 0.19343,0.22046 0.53937,0.40083 0.76876,0.40083 0.55971,0 1.99681,1.48579 2.46728,2.55088 0.43508,0.98495 0.37455,3.49357 -0.095,3.93772 -0.17378,0.16438 -0.31597,0.50676 -0.31597,0.76084 0,0.61137 -1.59387,2.16663 -2.78922,2.72166 -1.31127,0.60884 -4.16745,0.79673 -5.4035,0.35546 z m 4.91641,-0.84894 c 1.94996,-0.7761 3.34135,-3.11658 3.18722,-5.36127 -0.10731,-1.56286 -1.03734,-3.19661 -1.97311,-3.4661 -0.34189,-0.0985 -0.83148,-0.353 -1.08796,-0.56565 -0.79587,-0.65984 -0.90775,0.096 -0.2434,1.64427 0.47854,1.11526 0.54685,1.5512 0.30893,1.9717 -0.16801,0.29693 -0.30546,0.72281 -0.30546,0.9464 0,0.49221 -1.16775,2.16437 -2.20789,3.16158 -2.17348,2.08378 -2.16955,2.48778 0.0214,2.20274 0.78387,-0.10198 1.81897,-0.34213 2.30022,-0.53367 z M 9.29683,26.755236 c -1.87536,-0.60081 -3.65364,-2.41541 -3.48306,-3.55421 0.0806,-0.53819 0.27529,-0.63166 1.4648,-0.70328 0.97053,-0.0584 1.5215,0.0455 1.88343,0.35533 0.40862,0.34979 0.63218,0.37688 1.11078,0.1346 0.32955,-0.16683 0.8473,-0.22883 1.15056,-0.13779 0.31012,0.0931 0.82741,-0.0174 1.18222,-0.25242 0.34696,-0.22987 0.82503,-0.42175 1.06237,-0.4264 0.46269,-0.009 1.97947,-1.16156 1.9942,-1.51527 0.0141,-0.33922 1.38306,-1.1921 1.65668,-1.03214 0.44093,0.25777 0.6265,1.98552 0.32645,3.03953 -0.35128,1.23397 -2.16829,3.52129 -2.8067,3.53317 -0.25113,0.005 -0.70337,0.18505 -1.00498,0.40084 -0.56909,0.40715 -3.44634,0.50738 -4.53675,0.15804 z m 4.59098,-0.86513 c 1.24685,-0.53728 2.05219,-1.24849 2.81483,-2.48584 0.37439,-0.60741 0.4935,-2.83086 0.15127,-2.82359 -0.11654,0.002 -0.68284,0.45671 -1.25845,1.00942 -1.58313,1.52016 -5.53867,2.58242 -6.78556,1.82226 -0.64012,-0.39024 -2.1969,-0.31047 -2.1969,0.11257 0,0.9814 2.12275,2.55292 3.69193,2.73323 1.94244,0.2232 2.29476,0.187 3.58288,-0.36805 z m 12.06529,-1.77323 c -0.09,-0.40417 -0.28315,-0.94367 -0.42914,-1.19887 -0.14599,-0.25521 -0.26544,-0.69143 -0.26544,-0.96937 0,-0.27794 -0.19908,-0.66163 -0.44239,-0.85264 -0.24332,-0.19101 -0.62797,-0.68673 -0.85478,-1.10161 -0.22682,-0.41488 -0.54799,-0.75433 -0.71371,-0.75433 -0.16573,0 -0.60065,-0.22271 -0.96649,-0.49491 -0.36585,-0.2722 -1.43471,-0.64939 -2.37525,-0.83818 -1.04828,-0.21043 -1.71008,-0.48023 -1.71008,-0.69718 0,-0.9248 2.74991,-2.24529 4.67579,-2.24529 1.9669,0 5.777,2.3165 5.777,3.51236 0,0.25544 0.12713,0.53876 0.28251,0.62959 0.67268,0.39325 0.21687,3.653 -0.63674,4.55365 -0.19362,0.20429 -0.51596,0.55598 -0.71631,0.78154 -0.59936,0.67478 -1.43972,0.50683 -1.62497,-0.32476 z m 1.69443,-0.79986 c 0.67772,-0.87825 1.02884,-3.16444 0.62616,-4.07696 -0.44784,-1.01484 -2.21078,-2.67223 -2.84242,-2.67223 -0.30806,0 -0.84046,-0.24913 -1.18312,-0.55363 -0.58273,-0.51782 -0.73585,-0.53263 -2.36752,-0.22899 -0.95947,0.17855 -2.02215,0.539 -2.36151,0.801 -0.6805,0.52537 -0.76054,0.4696 1.50178,1.04636 0.69921,0.17825 1.46198,0.4802 1.69505,0.67098 0.23306,0.19079 0.67482,0.39044 0.98168,0.44365 0.30685,0.0532 0.68824,0.33869 0.84752,0.63439 0.15928,0.29569 0.55618,0.89588 0.882,1.33374 0.32582,0.43787 0.76675,1.36732 0.97983,2.06544 0.21308,0.69812 0.45502,1.26553 0.53763,1.26091 0.0826,-0.005 0.39893,-0.33071 0.70292,-0.72466 z m -17.9627,-1.85925 c -0.77008,-0.0814 -1.41408,-0.4623 -2.59296,-1.53374 -1.545,-1.4042 -1.57138,-1.45392 -1.76687,-3.33046 -0.1959,-1.88052 -0.18509,-1.92399 0.84204,-3.38727 1.13617,-1.61861 1.93398,-1.84692 2.08715,-0.59728 0.0481,0.39217 0.27055,0.8568 0.49439,1.03252 0.22385,0.17573 0.40699,0.6613 0.40699,1.07905 0,0.48606 0.20345,0.86254 0.56502,1.04557 0.31076,0.15732 0.56501,0.46515 0.56501,0.68408 0,0.21892 0.34938,0.52369 0.77638,0.67725 0.42701,0.15357 0.99166,0.4635 1.25478,0.68873 0.26312,0.22524 1.15156,0.48743 1.97431,0.58266 1.73102,0.20034 2.05668,0.72129 1.02481,1.63939 -1.23117,1.09544 -3.4365,1.65136 -5.63105,1.4195 z m 3.56711,-0.94732 c 0.93718,-0.32014 1.8363,-0.96245 1.8363,-1.3118 0,-0.1242 -0.40313,-0.22581 -0.89583,-0.22581 -0.99665,0 -4.47182,-1.4929 -4.47182,-1.92105 0,-0.15026 -0.31782,-0.63047 -0.70627,-1.06714 -0.38845,-0.43666 -0.70627,-1.02684 -0.70627,-1.31151 0,-0.43286 -0.16591,-0.82449 -0.77007,-1.8177 -0.13573,-0.22314 -0.93398,0.60126 -1.3548,1.39916 -0.6503,1.23305 -0.29273,3.49526 0.74566,4.71749 1.6255,1.91328 3.72807,2.42481 6.3231,1.53836 z m 0.56501,-3.03169 c -1.58189,-0.76003 -2.19747,-1.36224 -2.96418,-2.89979 -0.44874,-0.89991 -0.47226,-1.15326 -0.16127,-1.73695 0.20026,-0.37585 0.31479,-0.81269 0.25451,-0.97074 -0.29791,-0.78118 1.57999,-3.37581 2.68295,-3.70694 0.33646,-0.10101 0.61175,-0.28715 0.61175,-0.41365 0,-0.12649 0.7104,-0.31394 1.57867,-0.41655 1.26926,-0.15001 1.66919,-0.10096 2.0405,0.25027 0.42744,0.40431 0.42087,0.50879 -0.0882,1.40293 -0.30252,0.53135 -0.83936,1.14541 -1.19298,1.36457 -0.35534,0.22024 -0.64294,0.66893 -0.64294,1.00309 0,0.33253 -0.19069,0.7543 -0.42376,0.93726 -0.5977,0.46921 -0.5663,3.19568 0.0485,4.20891 0.44354,0.73102 0.38074,1.67842 -0.11024,1.66313 -0.12142,-0.004 -0.85639,-0.31227 -1.63329,-0.68554 z m 0.94877,-1.09014 c -0.48879,-0.55708 -0.34599,-3.7422 0.2042,-4.55459 0.22045,-0.32552 0.40082,-0.78834 0.40082,-1.02849 0,-0.24015 0.38139,-0.77363 0.84753,-1.18551 1.19268,-1.05385 1.11997,-1.60366 -0.21188,-1.60205 -0.90522,10e-4 -1.29583,0.22 -2.68383,1.50404 -1.09868,1.0164 -1.62442,1.71356 -1.62442,2.15407 0,0.35822 -0.13793,0.89511 -0.30653,1.19308 -0.16859,0.29797 -0.23032,0.82899 -0.13717,1.18003 0.23647,0.89121 1.82006,2.52957 2.83977,2.938 0.94492,0.37847 1.27254,0.0864 0.67151,-0.59858 z m 1.54683,0.0262 c -0.0938,-0.23114 -0.0902,-1.14673 0.008,-2.03466 0.30224,-2.7352 2.30787,-4.3204 5.9178,-4.6773 1.44161,-0.14253 1.86629,-0.0742 2.96139,0.47665 2.23886,1.12613 3.56732,2.80363 2.85931,3.61057 -0.35173,0.40088 -2.01204,0.29411 -3.4518,-0.22196 -0.57569,-0.20635 -0.88109,-0.20042 -1.1159,0.0217 -0.17782,0.16819 -0.64747,0.30761 -1.04369,0.30982 -1.29468,0.007 -2.7199,0.64999 -3.99164,1.80017 -1.33537,1.20773 -1.871,1.38641 -2.14337,0.71502 z m 2.00261,-1.42868 c 0.93379,-0.92193 3.51469,-1.89242 5.10705,-1.9204 0.62152,-0.0109 1.79746,0.0664 2.6132,0.17178 0.97655,0.12618 1.48317,0.0958 1.48317,-0.0891 0,-0.3988 -1.40216,-1.92506 -1.76854,-1.92506 -0.16818,0 -0.54431,-0.20418 -0.83584,-0.45374 -1.09613,-0.93832 -5.85839,-0.31323 -6.50451,0.85376 -0.16299,0.2944 -0.46348,0.62878 -0.66775,0.74307 -0.40399,0.22605 -0.95456,1.83587 -0.95708,2.79845 -0.002,0.82274 0.58543,0.75409 1.5303,-0.17878 z"
     id="path4138"
     inkscape:connector-curvature="0"
     sodipodi:nodetypes="ccccccccccsscssssssssssssscssssssssssssssscssssssssssssssssssssssssssssssssssssccsssssssssssscssssssssccsssssssscsssssssssssssssssssssssssssssssssssssssscsssssssssssssssssssssssssssssssssssssssssssscsssssscssssssssccssscsssscscscc" />
  <path
     style="opacity:1;fill:#000000;fill-opacity:1"
     d="M 16.025523,6.1720622 C 15.104998,6.1619526 14.265826,6.668706 13.345446,6.6146096 13.006238,6.6371978 12.567176,6.4931902 12.409154,6.8983606 11.874494,7.38376 11.11284,7.5366093 10.606362,8.0746443 9.9952536,8.7123652 9.4603068,9.420727 8.8560789,10.066222 8.5884763,10.31272 8.5310458,10.778253 8.1065454,10.823449 7.3202535,11.062371 6.4892857,11.271761 5.8743277,11.8539 5.1624274,12.485457 4.448692,13.177312 4.0634781,14.05858 c -0.430713,0.589 -0.7039311,1.282603 -0.7501986,2.014776 -0.04913,0.686383 -0.093116,1.397343 -0.012415,2.072702 0.3984966,0.68211 0.6508843,1.436836 0.6917807,2.228295 0.018384,0.538945 0.300852,1.018052 0.4090039,1.529217 -0.1656389,0.419941 -0.4517417,0.847568 -0.2838749,1.319956 0.3639562,1.474554 1.163611,2.833752 2.1804597,3.953347 0.368211,0.417435 0.8680339,0.715081 1.4149593,0.796043 0.5032811,0.154138 0.5837841,0.854894 1.1475243,0.901954 1.3698078,0.182009 2.8294328,0.01543 4.1068898,0.649937 1.049607,0.46685 1.965557,1.225932 3.104278,1.490406 1.351015,0.343335 2.780892,0.26456 4.145194,0.04314 0.542898,-0.0798 1.014576,-0.363031 1.425202,-0.712167 0.648059,-0.48105 1.625758,-0.371589 2.121004,-1.07389 0.32613,-0.474951 0.593693,-0.996429 1.036693,-1.382328 0.69702,-0.697905 1.635674,-1.153134 2.229481,-1.974215 0.306879,-0.188598 0.716787,-0.150661 0.997785,-0.413716 0.989868,-0.72873 1.897297,-1.637183 2.460407,-2.740023 0.172846,-0.364097 -0.03932,-0.795599 0.235158,-1.133517 0.638544,-0.906608 0.554359,-2.105122 0.292451,-3.126566 C 30.882608,17.840715 30.210047,17.446102 30.169987,16.752471 30.02229,15.814485 29.411671,14.975036 29.451694,13.991764 29.348947,12.888443 29.075184,11.764465 28.49408,10.811744 28.176367,10.411282 27.656239,10.24156 27.338127,9.8338013 26.972003,9.4330654 26.556302,8.9564579 25.97156,8.9391613 25.098634,8.7062072 24.391682,7.8280103 23.410115,7.9925809 22.062341,7.9748351 20.763108,7.5726638 19.512548,7.0825522 18.427112,6.5297901 17.261756,6.117787 16.025523,6.1720622 Z m 0.740554,1.215084 c 0.491414,-0.070536 1.078526,0.1548072 1.248431,0.6558876 -0.05012,0.6183161 -0.512368,1.1292116 -0.882344,1.5960204 -0.432993,0.5678118 -1.22106,0.9160978 -1.310188,1.6950698 -0.02116,0.653901 -0.67553,1.022848 -0.75233,1.656516 -0.151645,0.978415 -0.113945,2.004238 0.147267,2.960481 0.205302,0.62956 0.690159,1.292652 0.436473,1.974976 -0.213396,0.24778 -0.557191,-0.06803 -0.801563,-0.112084 -1.237255,-0.541854 -2.577535,-1.112816 -3.322185,-2.308663 -0.370357,-0.613366 -0.793081,-1.239251 -0.910136,-1.957125 0.03345,-0.570444 0.443613,-1.052133 0.419491,-1.640773 0.02195,-1.073606 0.758187,-1.9482503 1.430407,-2.7270589 0.460767,-0.5353206 1.092243,-0.8570054 1.702507,-1.1832256 0.402261,-0.4260536 1.049584,-0.4311922 1.590319,-0.5388666 0.328665,-0.042869 0.670874,-0.070486 1.003851,-0.071155 z m 6.531728,2.3940949 c 1.140632,-0.050032 2.151026,0.6437229 3.062057,1.2385499 0.721748,0.556137 1.566243,1.21115 1.747206,2.164231 0.07625,0.389057 -0.25798,0.721094 -0.639152,0.709316 -1.145907,0.110689 -2.272655,-0.291036 -3.380468,-0.575436 -0.541897,-0.05391 -0.936319,0.462511 -1.48272,0.43982 -1.536098,0.06221 -2.985427,0.748402 -4.116711,1.769936 -0.556109,0.381421 -1.012168,1.002023 -1.70099,1.143687 -0.436099,-0.0124 -0.401216,-0.58303 -0.406722,-0.889557 -0.0014,-1.251692 0.09547,-2.539489 0.857385,-3.584674 1.012456,-1.499929 2.854142,-2.089893 4.563015,-2.3231487 0.497776,-0.064948 0.998648,-0.095611 1.4971,-0.092724 z M 7.7604228,11.957905 c 0.3457477,0.06225 0.3027879,0.542796 0.4092014,0.798569 0.068358,0.527757 0.4640775,0.896152 0.7197284,1.329501 0.2237233,0.560744 0.089785,1.308596 0.6594824,1.692094 0.3501678,0.201754 0.607415,0.508744 0.737951,0.892656 0.343677,0.530915 1.048256,0.637409 1.543586,0.978315 0.739073,0.494153 1.597302,0.755267 2.473644,0.870762 0.488683,0.114718 1.110907,0.107081 1.455111,0.521837 0.08142,0.422593 -0.378519,0.716091 -0.628864,0.990215 -1.179358,0.920477 -2.707062,1.299213 -4.178293,1.35541 -0.944721,0.03528 -1.9783203,-0.04046 -2.7325045,-0.696092 C 7.385894,20.031904 6.5204218,19.370136 5.8915239,18.506439 5.4501572,17.709299 5.4942528,16.771867 5.3786374,15.890107 c -0.1020109,-0.682902 0.00566,-1.391852 0.4340808,-1.953135 0.4918719,-0.676686 0.9119412,-1.480007 1.649202,-1.922168 0.092967,-0.04293 0.1959986,-0.06498 0.2985026,-0.0569 z m 15.0187212,3.14593 c 1.354965,0.0019 2.624523,0.667224 3.771446,1.344997 0.711441,0.498615 1.53941,0.986066 1.924648,1.806511 0.08644,0.382046 0.151241,0.813513 0.493868,1.05356 0.289309,0.783275 0.10606,1.649736 -0.01961,2.452783 -0.149737,0.809448 -0.447658,1.618757 -1.072268,2.185943 -0.352547,0.374464 -0.801924,0.969821 -1.396302,0.731222 -0.454408,-0.24572 -0.422872,-0.858639 -0.638904,-1.271115 -0.213777,-0.54399 -0.445561,-1.087361 -0.504157,-1.672508 -0.24334,-0.69183 -0.908843,-1.115498 -1.251406,-1.753206 -0.254568,-0.376097 -0.524606,-0.849656 -1.017115,-0.912615 -0.641378,-0.31916 -1.22074,-0.769769 -1.935046,-0.939566 -0.88711,-0.320732 -1.868354,-0.392218 -2.706371,-0.836078 -0.257208,-0.335507 0.238592,-0.631521 0.443167,-0.835634 1.115462,-0.805658 2.523838,-1.319711 3.908053,-1.354294 z m -3.519058,3.455217 c 0.697131,-0.0037 1.065962,0.741659 1.742663,0.822512 0.863361,0.367476 1.454849,1.17317 1.977222,1.899665 0.668304,0.936853 0.621359,2.14097 0.565759,3.230767 -0.0087,0.538651 -0.24428,1.035923 -0.519377,1.490288 -0.154119,0.449325 -0.248374,0.938646 -0.609553,1.283506 -0.895284,1.01754 -2.047399,1.958045 -3.44344,2.170713 -1.285567,0.231686 -2.649749,0.347994 -3.947226,0.05417 -0.483977,-0.171657 -1.067286,-0.425853 -1.231571,-0.9503 0.06215,-0.236491 0.456725,-0.120851 0.630186,-0.207898 0.612635,-0.123196 1.459789,-0.05388 1.785355,-0.719964 0.221646,-0.518443 0.626403,-0.909685 1.078725,-1.229464 0.923209,-0.939284 1.508327,-2.194854 1.766842,-3.47815 0.195092,-1.230863 -0.307577,-2.413433 -0.508743,-3.605336 -0.06771,-0.293406 0.06584,-0.596719 0.379326,-0.667292 0.106131,-0.04487 0.217521,-0.08813 0.333832,-0.09322 z m -2.031999,1.158185 c 0.382286,0.361238 0.36845,0.950501 0.421102,1.436358 0.07819,0.907667 -0.135148,1.851007 -0.663326,2.608258 -0.558436,0.83916 -1.133025,1.772953 -2.05047,2.267325 -0.815951,0.211683 -1.544444,0.750353 -2.417028,0.758777 -1.116496,0.0569 -2.274594,0.125213 -3.359765,-0.204167 -1.2039801,-0.484121 -2.3407683,-1.293127 -2.9907282,-2.431656 -0.2253123,-0.406119 -0.4389057,-1.078566 0.05194,-1.369045 0.6826163,-0.202273 1.4356706,-0.17242 2.1267069,-0.12669 0.6068469,0.0096 0.9975361,0.719935 1.6244092,0.560435 0.4825506,-0.241043 1.0193636,-0.268711 1.5482896,-0.250246 0.445302,0.06037 0.848966,-0.06429 1.218562,-0.310437 0.654286,-0.355214 1.428049,-0.442638 2.019727,-0.922532 0.469026,-0.304351 0.852009,-0.718548 1.12298,-1.204051 0.346864,-0.387847 0.849106,-0.677439 1.3476,-0.812329 z"
     id="path4153"
     inkscape:connector-curvature="0" />
</svg>
