<?xml version="1.0" encoding="UTF-8" standalone="no"?>
<!-- Created with Inkscape (http://www.inkscape.org/) -->

<svg
   xmlns:dc="http://purl.org/dc/elements/1.1/"
   xmlns:cc="http://creativecommons.org/ns#"
   xmlns:rdf="http://www.w3.org/1999/02/22-rdf-syntax-ns#"
   xmlns:svg="http://www.w3.org/2000/svg"
   xmlns="http://www.w3.org/2000/svg"
   xmlns:sodipodi="http://sodipodi.sourceforge.net/DTD/sodipodi-0.dtd"
   xmlns:inkscape="http://www.inkscape.org/namespaces/inkscape"
   id="svg2"
   version="1.1"
   inkscape:version="0.91 r13725"
   width="35.000401"
   height="35.000004"
   viewBox="0 0 35.000401 35.000004"
   sodipodi:docname="codewars-mark.svg">
  <metadata
     id="metadata8">
    <rdf:RDF>
      <cc:Work
         rdf:about="">
        <dc:format>image/svg+xml</dc:format>
        <dc:type
           rdf:resource="http://purl.org/dc/dcmitype/StillImage" />
        <dc:title />
        <cc:license
           rdf:resource="http://creativecommons.org/publicdomain/zero/1.0/" />
      </cc:Work>
      <cc:License
         rdf:about="http://creativecommons.org/publicdomain/zero/1.0/">
        <cc:permits
           rdf:resource="http://creativecommons.org/ns#Reproduction" />
        <cc:permits
           rdf:resource="http://creativecommons.org/ns#Distribution" />
        <cc:permits
           rdf:resource="http://creativecommons.org/ns#DerivativeWorks" />
      </cc:License>
    </rdf:RDF>
  </metadata>
  <defs
     id="defs6" />
  <sodipodi:namedview
     pagecolor="#ffffff"
     bordercolor="#666666"
     borderopacity="1"
     objecttolerance="10"
     gridtolerance="10"
     guidetolerance="10"
     inkscape:pageopacity="0"
     inkscape:pageshadow="2"
     inkscape:window-width="1855"
     inkscape:window-height="1056"
     id="namedview4"
     showgrid="false"
     fit-margin-top="0"
     fit-margin-left="0"
     fit-margin-right="0"
     fit-margin-bottom="0"
     inkscape:zoom="19.334951"
     inkscape:cx="8.5248697"
     inkscape:cy="23.182838"
     inkscape:window-x="65"
     inkscape:window-y="24"
     inkscape:window-maximized="1"
     inkscape:current-layer="svg2" />
  <path
     style="fill:#000000;fill-opacity:1"
     d="M -0.01081984,0.06505065 C 17.46176,0.82954836 17.520099,0.80513995 35.098215,0.05375121 35.077196,11.734129 35.063003,23.414516 35.048612,35.094903 L -0.01819095,35.0196 C 0.00620026,23.368084 -0.00339016,11.716575 -0.01081984,0.06505065 Z M 32.82757,4.078246 C 32.43469,3.626145 2.886573,3.5049984 2.312083,3.9559864 c 0,0 -0.7814876,18.9159556 -0.1857129,29.1756996 L 32.815146,33.274832 C 33.801718,23.931158 32.82757,4.078246 32.82757,4.078246 Z m -16.20147,27.7485 c -0.63027,-0.10065 -1.77443,-0.53638 -2.54257,-0.9683 -1.85734,-1.04436 -3.1319,-1.45502 -4.53104,-1.45989 -0.79418,-0.003 -1.2773913,-0.21428 -1.6682,-0.53847 C 7.5699044,28.599292 7.1120129,28.391937 6.8422,28.325646 6.5439501,28.252368 6.06562,27.931556 5.72805,27.390366 5.40718,26.875956 5.0338015,26.49928 4.92286,26.455086 4.4384131,26.262104 3.50981,23.523036 3.33835,21.244236 c -0.47541,-6.31844 -0.48222,-6.08701 0.21744,-7.38517 1.01737,-1.88765 2.25577,-3.06871 3.43759,-3.27843 0.56769,-0.10073 1.03216,-0.26869 1.03216,-0.37324 0,-0.36762 2.41371,-2.71267 3.49929,-3.39975 1.06495,-0.67402 1.60273,-0.79095 5.05287,-1.09861 1.47615,-0.13164 1.75957,-0.0672 2.9902,0.67976 0.99387,0.60326 1.8469,0.87331 3.17191,1.00415 0.99684,0.0984 2.19382,0.39885 2.65996,0.66759 0.46614,0.26873 1.00643,0.48905 1.20066,0.4896 0.19422,5.6e-4 0.88679,0.50579 1.53904,1.12275 1.19074,1.12632 2.01698,3.00176 1.97807,4.48994 -0.0215,0.82247 0.63605,2.73438 1.24056,3.60706 0.49082,0.70855 0.44147,2.85964 -0.10969,4.78134 -0.27613,0.96278 -2.65331,3.63663 -3.23314,3.63663 -0.52903,0 -3.2232,2.27824 -3.75283,3.17346 -0.37584,0.63526 -0.81338,0.99799 -1.27162,1.05421 -0.38425,0.0471 -0.85414,0.27615 -1.0442,0.50892 -0.19006,0.23276 -0.88926,0.50802 -1.55379,0.61168 -0.66453,0.10366 -1.52605,0.25263 -1.9145,0.33105 -0.38845,0.0784 -1.22195,0.0602 -1.85223,-0.0404 z m 4.67731,-1.36215 c 0.23307,-0.26551 0.83969,-0.56489 1.34806,-0.6653 0.68278,-0.13486 1.02222,-0.40422 1.29903,-1.03087 0.20609,-0.46658 0.89304,-1.18808 1.52655,-1.60335 0.6335,-0.41527 1.22089,-0.92527 1.3053,-1.13335 0.0844,-0.20807 0.37836,-0.37831 0.65321,-0.37831 0.7511,0 3.2217,-2.69303 3.02056,-3.29249 -0.0899,-0.26781 0.0285,-0.68876 0.26303,-0.93543 0.58109,-0.61115 0.45962,-3.03702 -0.18248,-3.64437 -0.26154,-0.24739 -0.47552,-0.68962 -0.47552,-0.98273 0,-0.29311 -0.15626,-0.79558 -0.34724,-1.11661 -0.19099,-0.32103 -0.35787,-1.00456 -0.37085,-1.51896 -0.0363,-1.43869 -0.75935,-3.45737 -1.29605,-3.6185 -0.26284,-0.0789 -0.68288,-0.4394 -0.93343,-0.8011 -0.25056,-0.36171 -0.68973,-0.65764 -0.97595,-0.65764 -0.28623,0 -0.86072,-0.25321 -1.27665,-0.56268 -0.43614,-0.3245 -0.99008,-0.50483 -1.30868,-0.42603 -0.6603,0.16334 -3.49483,-0.50084 -4.33595,-1.01599 -1.18156,-0.72363 -3.19734,-1.03221 -4.19343,-0.64194 -0.50085,0.19623 -1.26313,0.32182 -1.69394,0.27907 -0.43083,-0.0427 -0.78331,0.037 -0.78331,0.17722 0,0.14022 -0.39124,0.40823 -0.86941,0.59558 -0.47818,0.18735 -1.08168,0.64708 -1.34112,1.02161 -0.25944,0.37454 -0.75811,0.95188 -1.10815,1.28298 -0.35004,0.3311 -0.63643,0.72227 -0.63643,0.86926 0,0.14699 -0.47299,0.35119 -1.05109,0.45378 -0.71146,0.12625 -1.39608,0.53647 -2.11881,1.26959 -0.58724,0.5957 -1.06772,1.19919 -1.06772,1.34109 0,0.1419 -0.17459,0.44785 -0.38799,0.67988 -0.6153,0.66904 -0.84463,3.53106 -0.33412,4.16986 0.2319,0.29017 0.42568,0.9263 0.43062,1.41362 0.005,0.48733 0.14493,1.12633 0.31109,1.42001 0.21974,0.38836 0.21071,0.63814 -0.0331,0.91602 -0.79102,0.90155 1.83508,5.46268 3.14518,5.46268 0.28657,0 0.65959,0.24488 0.82893,0.54417 0.23932,0.42298 0.57185,0.53807 1.49311,0.51676 1.72661,-0.04 3.00331,0.30651 4.37731,1.18786 1.48568,0.95298 2.78355,1.2241 5.00063,1.0446 1.15794,-0.0938 1.82932,-0.29021 2.11881,-0.61999 z m -6.49768,-0.89798 c -0.97831,-0.34926 -1.51955,-1.21227 -0.79761,-1.2718 0.20561,-0.0169 0.50097,-0.0588 0.65635,-0.0929 0.15538,-0.0341 0.50813,-0.0804 0.78389,-0.10278 0.27576,-0.0224 0.61928,-0.33402 0.76338,-0.69252 0.14409,-0.35849 0.50056,-0.77258 0.79214,-0.92018 0.74027,-0.37475 1.91219,-2.63705 1.99165,-3.84471 0.0365,-0.55414 -0.11746,-1.59278 -0.34203,-2.3081 -0.29978,-0.95483 -0.32476,-1.37962 -0.094,-1.5979 0.44199,-0.41808 1.19882,-0.36954 1.61387,0.10351 0.19343,0.22046 0.53937,0.40083 0.76876,0.40083 0.55971,0 1.99681,1.48579 2.46728,2.55088 0.43508,0.98495 0.37455,3.49357 -0.095,3.93772 -0.17378,0.16438 -0.31597,0.50676 -0.31597,0.76084 0,0.61137 -1.59387,2.16663 -2.78922,2.72166 -1.31127,0.60884 -4.16745,0.79673 -5.4035,0.35546 z m 4.91641,-0.84894 c 1.94996,-0.7761 3.34135,-3.11658 3.18722,-5.36127 -0.10731,-1.56286 -1.03734,-3.19661 -1.97311,-3.4661 -0.34189,-0.0985 -0.83148,-0.353 -1.08796,-0.56565 -0.79587,-0.65984 -0.90775,0.096 -0.2434,1.64427 0.47854,1.11526 0.54685,1.5512 0.30893,1.9717 -0.16801,0.29693 -0.30546,0.72281 -0.30546,0.9464 0,0.49221 -1.16775,2.16437 -2.20789,3.16158 -2.17348,2.08378 -2.16955,2.48778 0.0214,2.20274 0.78387,-0.10198 1.81897,-0.34213 2.30022,-0.53367 z M 9.29683,26.755236 c -1.87536,-0.60081 -3.65364,-2.41541 -3.48306,-3.55421 0.0806,-0.53819 0.27529,-0.63166 1.4648,-0.70328 0.97053,-0.0584 1.5215,0.0455 1.88343,0.35533 0.40862,0.34979 0.63218,0.37688 1.11078,0.1346 0.32955,-0.16683 0.8473,-0.22883 1.15056,-0.13779 0.31012,0.0931 0.82741,-0.0174 1.18222,-0.25242 0.34696,-0.22987 0.82503,-0.42175 1.06237,-0.4264 0.46269,-0.009 1.97947,-1.16156 1.9942,-1.51527 0.0141,-0.33922 1.38306,-1.1921 1.65668,-1.03214 0.44093,0.25777 0.6265,1.98552 0.32645,3.03953 -0.35128,1.23397 -2.16829,3.52129 -2.8067,3.53317 -0.25113,0.005 -0.70337,0.18505 -1.00498,0.40084 -0.56909,0.40715 -3.44634,0.50738 -4.53675,0.15804 z m 4.59098,-0.86513 c 1.24685,-0.53728 2.05219,-1.24849 2.81483,-2.48584 0.37439,-0.60741 0.4935,-2.83086 0.15127,-2.82359 -0.11654,0.002 -0.68284,0.45671 -1.25845,1.00942 -1.58313,1.52016 -5.53867,2.58242 -6.78556,1.82226 -0.64012,-0.39024 -2.1969,-0.31047 -2.1969,0.11257 0,0.9814 2.12275,2.55292 3.69193,2.73323 1.94244,0.2232 2.29476,0.187 3.58288,-0.36805 z m 12.06529,-1.77323 c -0.09,-0.40417 -0.28315,-0.94367 -0.42914,-1.19887 -0.14599,-0.25521 -0.26544,-0.69143 -0.26544,-0.96937 0,-0.27794 -0.19908,-0.66163 -0.44239,-0.85264 -0.24332,-0.19101 -0.62797,-0.68673 -0.85478,-1.10161 -0.22682,-0.41488 -0.54799,-0.75433 -0.71371,-0.75433 -0.16573,0 -0.60065,-0.22271 -0.96649,-0.49491 -0.36585,-0.2722 -1.43471,-0.64939 -2.37525,-0.83818 -1.04828,-0.21043 -1.71008,-0.48023 -1.71008,-0.69718 0,-0.9248 2.74991,-2.24529 4.67579,-2.24529 1.9669,0 5.777,2.3165 5.777,3.51236 0,0.25544 0.12713,0.53876 0.28251,0.62959 0.67268,0.39325 0.21687,3.653 -0.63674,4.55365 -0.19362,0.20429 -0.51596,0.55598 -0.71631,0.78154 -0.59936,0.67478 -1.43972,0.50683 -1.62497,-0.32476 z m 1.69443,-0.79986 c 0.67772,-0.87825 1.02884,-3.16444 0.62616,-4.07696 -0.44784,-1.01484 -2.21078,-2.67223 -2.84242,-2.67223 -0.30806,0 -0.84046,-0.24913 -1.18312,-0.55363 -0.58273,-0.51782 -0.73585,-0.53263 -2.36752,-0.22899 -0.95947,0.17855 -2.02215,0.539 -2.36151,0.801 -0.6805,0.52537 -0.76054,0.4696 1.50178,1.04636 0.69921,0.17825 1.46198,0.4802 1.69505,0.67098 0.23306,0.19079 0.67482,0.39044 0.98168,0.44365 0.30685,0.0532 0.68824,0.33869 0.84752,0.63439 0.15928,0.29569 0.55618,0.89588 0.882,1.33374 0.32582,0.43787 0.76675,1.36732 0.97983,2.06544 0.21308,0.69812 0.45502,1.26553 0.53763,1.26091 0.0826,-0.005 0.39893,-0.33071 0.70292,-0.72466 z m -17.9627,-1.85925 c -0.77008,-0.0814 -1.41408,-0.4623 -2.59296,-1.53374 -1.545,-1.4042 -1.57138,-1.45392 -1.76687,-3.33046 -0.1959,-1.88052 -0.18509,-1.92399 0.84204,-3.38727 1.13617,-1.61861 1.93398,-1.84692 2.08715,-0.59728 0.0481,0.39217 0.27055,0.8568 0.49439,1.03252 0.22385,0.17573 0.40699,0.6613 0.40699,1.07905 0,0.48606 0.20345,0.86254 0.56502,1.04557 0.31076,0.15732 0.56501,0.46515 0.56501,0.68408 0,0.21892 0.34938,0.52369 0.77638,0.67725 0.42701,0.15357 0.99166,0.4635 1.25478,0.68873 0.26312,0.22524 1.15156,0.48743 1.97431,0.58266 1.73102,0.20034 2.05668,0.72129 1.02481,1.63939 -1.23117,1.09544 -3.4365,1.65136 -5.63105,1.4195 z m 3.56711,-0.94732 c 0.93718,-0.32014 1.8363,-0.96245 1.8363,-1.3118 0,-0.1242 -0.40313,-0.22581 -0.89583,-0.22581 -0.99665,0 -4.47182,-1.4929 -4.47182,-1.92105 0,-0.15026 -0.31782,-0.63047 -0.70627,-1.06714 -0.38845,-0.43666 -0.70627,-1.02684 -0.70627,-1.31151 0,-0.43286 -0.16591,-0.82449 -0.77007,-1.8177 -0.13573,-0.22314 -0.93398,0.60126 -1.3548,1.39916 -0.6503,1.23305 -0.29273,3.49526 0.74566,4.71749 1.6255,1.91328 3.72807,2.42481 6.3231,1.53836 z m 0.56501,-3.03169 c -1.58189,-0.76003 -2.19747,-1.36224 -2.96418,-2.89979 -0.44874,-0.89991 -0.47226,-1.15326 -0.16127,-1.73695 0.20026,-0.37585 0.31479,-0.81269 0.25451,-0.97074 -0.29791,-0.78118 1.57999,-3.37581 2.68295,-3.70694 0.33646,-0.10101 0.61175,-0.28715 0.61175,-0.41365 0,-0.12649 0.7104,-0.31394 1.57867,-0.41655 1.26926,-0.15001 1.66919,-0.10096 2.0405,0.25027 0.42744,0.40431 0.42087,0.50879 -0.0882,1.40293 -0.30252,0.53135 -0.83936,1.14541 -1.19298,1.36457 -0.35534,0.22024 -0.64294,0.66893 -0.64294,1.00309 0,0.33253 -0.19069,0.7543 -0.42376,0.93726 -0.5977,0.46921 -0.5663,3.19568 0.0485,4.20891 0.44354,0.73102 0.38074,1.67842 -0.11024,1.66313 -0.12142,-0.004 -0.85639,-0.31227 -1.63329,-0.68554 z m 0.94877,-1.09014 c -0.48879,-0.55708 -0.34599,-3.7422 0.2042,-4.55459 0.22045,-0.32552 0.40082,-0.78834 0.40082,-1.02849 0,-0.24015 0.38139,-0.77363 0.84753,-1.18551 1.19268,-1.05385 1.11997,-1.60366 -0.21188,-1.60205 -0.90522,10e-4 -1.29583,0.22 -2.68383,1.50404 -1.09868,1.0164 -1.62442,1.71356 -1.62442,2.15407 0,0.35822 -0.13793,0.89511 -0.30653,1.19308 -0.16859,0.29797 -0.23032,0.82899 -0.13717,1.18003 0.23647,0.89121 1.82006,2.52957 2.83977,2.938 0.94492,0.37847 1.27254,0.0864 0.67151,-0.59858 z m 1.54683,0.0262 c -0.0938,-0.23114 -0.0902,-1.14673 0.008,-2.03466 0.30224,-2.7352 2.30787,-4.3204 5.9178,-4.6773 1.44161,-0.14253 1.86629,-0.0742 2.96139,0.47665 2.23886,1.12613 3.56732,2.80363 2.85931,3.61057 -0.35173,0.40088 -2.01204,0.29411 -3.4518,-0.22196 -0.57569,-0.20635 -0.88109,-0.20042 -1.1159,0.0217 -0.17782,0.16819 -0.64747,0.30761 -1.04369,0.30982 -1.29468,0.007 -2.7199,0.64999 -3.99164,1.80017 -1.33537,1.20773 -1.871,1.38641 -2.14337,0.71502 z m 2.00261,-1.42868 c 0.93379,-0.92193 3.51469,-1.89242 5.10705,-1.9204 0.62152,-0.0109 1.79746,0.0664 2.6132,0.17178 0.97655,0.12618 1.48317,0.0958 1.48317,-0.0891 0,-0.3988 -1.40216,-1.92506 -1.76854,-1.92506 -0.16818,0 -0.54431,-0.20418 -0.83584,-0.45374 -1.09613,-0.93832 -5.85839,-0.31323 -6.50451,0.85376 -0.16299,0.2944 -0.46348,0.62878 -0.66775,0.74307 -0.40399,0.22605 -0.95456,1.83587 -0.95708,2.79845 -0.002,0.82274 0.58543,0.75409 1.5303,-0.17878 z"
     id="path4138"
     inkscape:connector-curvature="0"
     sodipodi:nodetypes="ccccccccccsscssssssssssssscssssssssssssssscssssssssssssssssssssssssssssssssssssccsssssssssssscssssssssccsssssssscsssssssssssssssssssssssssssssssssssssssscsssssssssssssssssssssssssssssssssssssssssssscsssssscssssssssccssscsssscscscc" />
  <path
     style="opacity:1;fill:#000000;fill-opacity:1"
     d="M 15.952656,5.9153793 C 15.203817,5.8519222 14.568077,6.3051258 13.828549,6.3025191 13.33841,6.3570176 12.784133,6.254261 12.346428,6.5244302 12.222442,6.6750764 12.142234,6.8535145 11.941091,6.9287607 11.274546,7.2683356 10.574774,7.6056194 10.103586,8.2111843 9.5882396,8.8856965 8.9836969,9.4834873 8.4413725,10.134455 c -0.15159,0.139005 -0.1434888,0.41194 -0.3797937,0.4441 -0.7112398,0.207775 -1.4674697,0.356316 -2.0691851,0.820268 -0.7319495,0.554271 -1.3705222,1.23866 -1.8950841,1.991068 -0.1285841,0.24273 -0.18701,0.51125 -0.37748,0.723039 -0.6656963,0.851947 -0.6863739,1.989498 -0.7187336,3.021892 -0.023216,0.629735 0.033356,1.296284 0.4156923,1.823449 0.3936746,0.758294 0.1868805,1.670062 0.5410927,2.445519 0.06216,0.217315 0.3016996,0.480452 0.076504,0.68588 -0.2688336,0.409847 -0.1810526,0.934176 -0.1331868,1.39462 0.3433483,1.274513 1.0269229,2.4438 1.8502258,3.467434 0.4748862,0.534819 1.0021684,1.15234 1.7628205,1.229578 0.5087292,0.129148 0.6020413,0.796296 1.1226358,0.917633 0.7968272,0.204188 1.631045,0.08821 2.441641,0.198874 1.127645,0.0704 2.166067,0.596981 3.118711,1.185733 1.21399,0.761454 2.667073,1.102892 4.093399,1.014912 0.969217,-0.04474 1.985877,-0.05771 2.883152,-0.4687 0.40419,-0.296679 0.780414,-0.652373 1.283703,-0.779008 0.532781,-0.156799 1.135492,-0.27246 1.477224,-0.760106 0.334592,-0.429476 0.531111,-0.959465 0.949312,-1.326257 0.668816,-0.66795 1.530531,-1.111746 2.147215,-1.838201 0.123998,-0.140918 0.235461,-0.31787 0.450228,-0.296671 0.876895,-0.193861 1.455303,-0.952182 2.069306,-1.544579 0.498645,-0.561121 1.066625,-1.13532 1.266405,-1.880296 0.01809,-0.310487 -0.06194,-0.66394 0.179625,-0.916339 0.447934,-0.567928 0.460185,-1.318427 0.435192,-2.006601 0.0038,-0.787421 -0.113778,-1.642745 -0.685769,-2.233709 -0.397377,-0.458644 -0.285503,-1.116977 -0.550528,-1.638206 -0.263931,-0.468136 -0.408399,-0.990948 -0.455472,-1.526223 -0.0988,-1.235466 -0.335246,-2.511274 -1.003627,-3.575096 C 28.462615,10.252217 27.903152,10.121968 27.582155,9.7105166 27.22106,9.284327 26.819588,8.8339506 26.243597,8.7198966 25.329421,8.6188175 24.714016,7.7114385 23.772435,7.7247509 22.926621,7.7490231 22.086467,7.6300164 21.271839,7.4052926 20.348782,7.2090836 19.504317,6.78516 18.651997,6.3980786 17.801292,6.0284707 16.8766,5.8850275 15.952656,5.9153793 Z m 0.967783,1.7347939 c 0.344355,-0.029856 0.705448,0.1382209 0.858852,0.449365 -0.300781,0.82818 -0.886022,1.5250149 -1.561211,2.0791978 -0.402679,0.326913 -0.676754,0.805279 -0.681903,1.330832 -0.125424,0.442239 -0.569817,0.713485 -0.6693,1.174857 -0.202461,0.780326 -0.143522,1.602122 -0.101508,2.39926 0.038,0.706407 0.355827,1.344835 0.621561,1.984826 0.06177,0.218118 0.126242,0.480876 0.04817,0.690561 -1.020931,-0.38312 -2.034907,-0.837766 -2.91224,-1.514599 -0.711056,-0.609848 -1.177728,-1.457861 -1.543689,-2.307851 -0.134702,-0.260611 -0.149669,-0.559491 0.0037,-0.814585 0.210115,-0.451013 0.385473,-0.929777 0.341977,-1.436371 -0.009,-0.549812 0.372872,-1.002963 0.640483,-1.453225 0.523694,-0.7406174 1.145059,-1.4834888 2.020658,-1.8093877 0.234438,-0.094386 0.44058,-0.2530659 0.590752,-0.4457396 0.753029,-0.2346925 1.556508,-0.322162 2.343672,-0.3271405 z m 6.317954,2.3734518 c 0.989331,-0.024039 1.878824,0.530751 2.685314,1.016639 0.747499,0.514437 1.520533,1.108371 1.896207,1.960511 0.138174,0.247793 -0.0025,0.647404 -0.327141,0.620791 -1.079005,0.123591 -2.137984,-0.221693 -3.158589,-0.524029 -0.409976,-0.126262 -0.841581,-0.0026 -1.175634,0.249023 -0.598855,0.256702 -1.278762,0.150903 -1.897069,0.344922 -1.381587,0.327834 -2.514476,1.239286 -3.561737,2.152324 -0.284476,0.195099 -0.569544,0.528353 -0.942357,0.55595 -0.188753,-0.220357 -0.115094,-0.56962 -0.13431,-0.842268 0.03593,-1.257021 0.210987,-2.621569 1.100361,-3.586181 1.096869,-1.228544 2.781984,-1.67224 4.358829,-1.863178 0.383952,-0.04264 0.769561,-0.08013 1.156126,-0.0845 z M 7.6999979,12.211927 c 0.1519989,0.04336 0.1252954,0.301705 0.1774512,0.433095 0.077239,0.523076 0.3392716,0.99226 0.6874426,1.381542 0.3368276,0.464028 0.1001038,1.100171 0.4528175,1.559484 0.1898935,0.371732 0.6379919,0.49129 0.8542769,0.830626 0.098037,0.406113 0.3771229,0.74815 0.7639899,0.913145 0.543055,0.249561 1.084212,0.507014 1.570447,0.857989 0.920215,0.534998 2.016049,0.505961 3.007102,0.791006 0.129168,0.04884 0.400001,0.139484 0.244881,0.311518 -0.75287,1.017281 -2.023362,1.463358 -3.222377,1.69388 -0.869591,0.134273 -1.764344,0.188874 -2.6390478,0.07553 C 8.6179114,20.870977 7.9061329,20.105704 7.1755884,19.487583 6.6045884,18.952536 5.8988985,18.374089 5.8250255,17.527657 5.7083896,16.624023 5.573767,15.717606 5.661628,14.802983 5.9372787,14.099459 6.4139361,13.51819 6.8670413,12.917911 7.1061125,12.65233 7.3463076,12.321316 7.6999979,12.211927 Z m 15.2248061,3.146677 c 1.021691,0.03675 1.971312,0.494494 2.866752,0.950175 0.881642,0.502148 1.792343,1.058963 2.377768,1.909671 0.164586,0.275979 0.08812,0.63129 0.293735,0.895709 0.149606,0.233127 0.39476,0.414933 0.383074,0.724802 0.0828,0.919921 -0.092,1.855682 -0.382693,2.715983 -0.225334,0.741928 -0.831159,1.26638 -1.365825,1.791391 -0.216718,0.21163 -0.643978,0.156814 -0.710214,-0.173928 -0.185917,-0.553146 -0.370869,-1.107027 -0.608333,-1.641258 -0.195511,-0.430395 -0.08925,-0.948642 -0.399897,-1.333871 -0.330641,-0.448339 -0.776707,-0.806724 -1.04162,-1.3067 -0.265399,-0.477885 -0.634694,-0.956867 -1.196868,-1.082757 -0.586451,-0.278931 -1.09597,-0.713805 -1.737866,-0.875023 -0.889474,-0.330205 -1.850167,-0.425391 -2.727127,-0.786747 -0.162387,-0.07043 0.109705,-0.250441 0.168059,-0.336031 0.780189,-0.673001 1.765259,-1.039913 2.744181,-1.288019 0.437841,-0.102217 0.886493,-0.167543 1.336874,-0.163397 z m -3.606917,3.488923 c 0.53322,-0.01565 0.77174,0.5879 1.268942,0.692778 0.418347,0.06995 0.792313,0.28608 1.08362,0.595276 0.766805,0.748031 1.545982,1.645804 1.603113,2.769214 0.05376,0.788082 0.09214,1.60917 -0.146863,2.371603 -0.169741,0.350827 -0.4531,0.656606 -0.483978,1.065235 -0.226207,0.770903 -0.891827,1.304168 -1.482643,1.80267 -0.599463,0.496663 -1.333915,0.894608 -2.120822,1.033698 -1.231019,0.241089 -2.493823,0.364154 -3.736135,0.124024 -0.441824,-0.09341 -0.886427,-0.285303 -1.174597,-0.645895 0.497083,-0.04859 0.99155,-0.138929 1.484302,-0.222179 0.630726,-0.120877 0.864771,-0.786235 1.183144,-1.255736 0.263052,-0.354151 0.708658,-0.509325 0.960761,-0.879242 0.721371,-0.893687 1.235026,-1.957862 1.522879,-3.067776 0.272187,-1.279438 -0.169048,-2.554118 -0.457786,-3.788257 -0.06788,-0.202081 -0.06733,-0.485348 0.190156,-0.545263 0.09708,-0.03767 0.202132,-0.05216 0.305907,-0.05015 z m -2.147561,1.179604 c 0.297208,0.753174 0.248379,1.594121 0.148637,2.382343 -0.305046,1.002146 -0.944621,1.868992 -1.620769,2.654757 -0.329516,0.35176 -0.679369,0.764404 -1.193847,0.809651 -0.52987,0.116246 -0.935344,0.535642 -1.488705,0.581171 -0.98449,0.168646 -1.993918,0.117722 -2.986128,0.05792 C 8.8486536,26.358691 7.8045972,25.660265 6.9832237,24.828328 6.5859589,24.380714 6.1405133,23.837207 6.2063729,23.201084 6.2472763,22.888457 6.6688028,22.95999 6.890951,22.911751 c 0.591161,-0.0048 1.2080364,-0.09481 1.7814912,0.07941 0.3939937,0.237335 0.7873987,0.64713 1.2955283,0.503745 0.4557195,-0.136058 0.9064075,-0.39229 1.4001435,-0.273279 0.701658,0.16651 1.322693,-0.271126 1.926279,-0.55048 0.33831,-0.147881 0.725389,-0.138378 1.036975,-0.3574 0.59827,-0.357494 1.208471,-0.764323 1.601953,-1.351633 0.195826,-0.512994 0.760217,-0.749565 1.227942,-0.953024 l 0.0091,0.01804 z"
     id="path4139"
     inkscape:connector-curvature="0" />
</svg>
