<?xml version="1.0" encoding="UTF-8" standalone="no"?>
<!-- Created with Inkscape (http://www.inkscape.org/) -->

<svg
   xmlns:dc="http://purl.org/dc/elements/1.1/"
   xmlns:cc="http://creativecommons.org/ns#"
   xmlns:rdf="http://www.w3.org/1999/02/22-rdf-syntax-ns#"
   xmlns:svg="http://www.w3.org/2000/svg"
   xmlns="http://www.w3.org/2000/svg"
   xmlns:sodipodi="http://sodipodi.sourceforge.net/DTD/sodipodi-0.dtd"
   xmlns:inkscape="http://www.inkscape.org/namespaces/inkscape"
   id="svg4238"
   version="1.1"
   inkscape:version="0.91 r13725"
   width="35"
   height="35"
   viewBox="0 0 35 35"
   sodipodi:docname="Screenshot from 2017-10-17 00-46-03.svg">
  <metadata
     id="metadata4244">
    <rdf:RDF>
      <cc:Work
         rdf:about="">
        <dc:format>image/svg+xml</dc:format>
        <dc:type
           rdf:resource="http://purl.org/dc/dcmitype/StillImage" />
        <dc:title />
        <cc:license
           rdf:resource="http://creativecommons.org/publicdomain/zero/1.0/" />
      </cc:Work>
      <cc:License
         rdf:about="http://creativecommons.org/publicdomain/zero/1.0/">
        <cc:permits
           rdf:resource="http://creativecommons.org/ns#Reproduction" />
        <cc:permits
           rdf:resource="http://creativecommons.org/ns#Distribution" />
        <cc:permits
           rdf:resource="http://creativecommons.org/ns#DerivativeWorks" />
      </cc:License>
    </rdf:RDF>
  </metadata>
  <defs
     id="defs4242" />
  <sodipodi:namedview
     pagecolor="#ffffff"
     bordercolor="#666666"
     borderopacity="1"
     objecttolerance="10"
     gridtolerance="10"
     guidetolerance="10"
     inkscape:pageopacity="0"
     inkscape:pageshadow="2"
     inkscape:window-width="1855"
     inkscape:window-height="1056"
     id="namedview4240"
     showgrid="false"
     inkscape:zoom="8"
     inkscape:cx="14.594664"
     inkscape:cy="19.105601"
     inkscape:window-x="65"
     inkscape:window-y="24"
     inkscape:window-maximized="1"
     inkscape:current-layer="svg4238"
     fit-margin-top="0"
     fit-margin-left="0"
     fit-margin-right="0"
     fit-margin-bottom="0" />
  <path
     style="fill:#000000"
     d="m -0.43903032,-0.36092742 c -0.40397839,1.1901e-4 -0.70267258,-0.0217871 3.8401e-4,-0.0174794 l -0.007081,36.00738585 c -0.26184472,-0.01188 -0.41498078,-0.0079 -0.0110024,-0.0079 l 35.94976493,1e-4 c -0.0023,0.453126 0.0038,0.346105 0.0039,-0.002 l 0.01394,-35.99079126 c 0,0 0.407886,-1.1896e-4 0.0039,5e-8 z m -0.0264262,-0.0235031 18.00647247,0.005524 17.984375,0 0,18.00195328 0,18.001953 -17.984375,0 -17.98437538,0 0,-18.001953 z M 16.583984,11.494141 c -0.396023,0.0031 -0.895526,0.03286 -1.402343,0.08984 l -1.841797,0.208985 0,1.326172 c 0,1.129281 -0.101734,1.326172 -0.679688,1.326171 -1.030559,0 -4.4554694,1.331529 -6.1972654,2.410157 -2.4975302,1.54662 -4.0799196,4.183195 -3.65625,6.089843 l 0.1953125,0.878907 7.3535159,0 7.353515,0 0,-3.78125 0,-3.78125 1.451172,0 c 2.015983,0 4.706036,0.772893 5.939453,1.707031 0.89943,0.681197 2.021485,2.159307 2.021485,2.664062 0,0.09145 -1.059355,0.166016 -2.353516,0.166016 l -2.351562,0 0,-1.794922 c 0,-1.448936 -0.114988,-1.824564 -0.589844,-1.949218 -0.579905,-0.152236 -2.530486,-0.278507 -3.371094,-0.21875 -0.329382,0.02346 -0.408541,0.833578 -0.335937,3.433593 l 0.09375,3.404297 7.294921,0.08203 7.294922,0.08008 0.222657,-1.066407 C 33.313688,21.38631 31.964835,18.816346 30.232422,17.447266 27.88312,15.590684 22.281019,13.839844 18.6875,13.839844 c -0.891415,0 -0.978516,-0.09292 -0.978516,-1.041016 0,-0.572598 -0.153695,-1.125831 -0.341796,-1.230469 -0.09405,-0.05232 -0.38718,-0.07729 -0.783204,-0.07422 z m -3.845703,5.392578 c 0.510143,-0.02956 0.601563,0.550048 0.601563,1.945312 l 0,1.966797 -2.353516,0 c -1.2941622,0 -2.3535155,-0.116008 -2.3535155,-0.257812 0,-0.554708 1.5876595,-2.333431 2.6640625,-2.986328 0.679313,-0.412039 1.13532,-0.650231 1.441406,-0.667969 z"
     id="path4248"
     inkscape:connector-curvature="0"
     sodipodi:nodetypes="sccscscsscccccccccsccsssccccccsssscssccccccssssssscssss" />
</svg>
