<?xml version="1.0" standalone="no"?>
<!DOCTYPE svg PUBLIC "-//W3C//DTD SVG 20010904//EN"
 "http://www.w3.org/TR/2001/REC-SVG-20010904/DTD/svg10.dtd">
<svg version="1.0" xmlns="http://www.w3.org/2000/svg"
 width="260.000000pt" height="260.000000pt" viewBox="0 0 260.000000 260.000000"
 preserveAspectRatio="xMidYMid meet">
<metadata>
Created by potrace 1.11, written by Peter Selinger 2001-2013
</metadata>
<g transform="translate(0.000000,260.000000) scale(0.100000,-0.100000)"
fill="#000000" stroke="none">
<path d="M828 2408 c-2 -15 -10 -23 -23 -23 -11 0 -19 -3 -17 -8 1 -4 2 -14 2
-22 0 -19 26 -20 34 0 3 8 12 12 21 9 19 -8 10 -23 -21 -35 -21 -7 -23 -12
-14 -29 13 -24 26 -26 34 -5 3 8 12 12 21 9 20 -8 31 23 17 47 -7 10 -12 32
-12 49 0 23 -5 30 -19 30 -13 0 -21 -8 -23 -22z"/>
<path d="M1780 2398 c0 -17 -7 -39 -16 -49 -16 -18 -11 -44 7 -33 6 3 20 -4
31 -15 16 -18 23 -20 34 -10 8 7 13 18 10 25 -3 7 -1 16 4 19 6 4 10 17 10 31
0 17 -5 24 -20 24 -13 0 -20 7 -20 20 0 13 -7 20 -20 20 -16 0 -20 -7 -20 -32z
m43 -42 c3 -8 0 -17 -8 -19 -15 -7 -25 1 -25 20 0 17 26 17 33 -1z"/>
<path d="M905 2280 c-4 -6 -3 -16 3 -22 6 -6 12 -6 17 2 4 6 3 16 -3 22 -6 6
-12 6 -17 -2z"/>
<path d="M1710 2269 c0 -24 23 -21 28 4 2 10 -3 17 -12 17 -10 0 -16 -9 -16
-21z"/>
<path d="M1507 2244 c-18 -16 -26 -32 -22 -43 3 -10 -1 -24 -10 -31 -12 -10
-15 -9 -15 5 0 15 -2 15 -16 5 -8 -8 -27 -15 -41 -16 -14 -2 -29 -7 -32 -11
-3 -4 -16 -14 -28 -21 -20 -10 -26 -9 -43 8 -18 18 -33 24 -52 21 -5 0 -8 4
-8 10 0 6 -9 9 -20 6 -12 -3 -20 0 -20 7 0 11 -63 76 -74 76 -14 0 -4 -22 19
-42 14 -12 25 -28 25 -37 0 -11 -3 -10 -14 5 -24 32 -31 7 -30 -109 0 -98 4
-121 28 -182 15 -38 32 -76 38 -83 16 -18 0 -28 -22 -14 -45 28 -70 1 -45 -49
21 -40 53 -39 62 1 12 65 30 21 39 -100 4 -49 1 -70 -10 -85 -16 -20 -16 -20
-28 0 -6 10 -31 40 -55 64 -45 48 -49 56 -33 66 6 3 10 15 10 26 0 10 -4 19
-10 19 -5 0 -10 6 -10 14 0 18 -29 29 -45 16 -9 -7 -16 -6 -25 5 -10 13 -9 15
9 15 12 0 29 9 38 20 10 11 28 20 41 20 31 0 38 24 16 58 -10 15 -17 39 -15
53 1 14 -5 31 -13 38 -10 9 -14 22 -10 37 4 17 1 26 -10 30 -11 4 -14 13 -10
29 4 18 1 25 -16 30 l-22 7 22 15 c14 10 20 23 18 41 -3 23 -7 27 -33 24 -16
-2 -31 -8 -33 -13 -2 -5 -10 -9 -18 -9 -20 0 -18 -47 4 -59 14 -9 15 -10 1
-11 -9 0 -24 -9 -34 -20 -25 -27 -32 -25 -27 8 4 30 -27 70 -35 44 -3 -6 -9
-9 -14 -6 -14 8 -51 -37 -44 -54 3 -7 5 -18 5 -23 0 -5 7 -9 15 -9 8 0 15 -8
15 -19 0 -10 7 -24 15 -31 8 -7 15 -19 15 -28 0 -11 -8 -8 -29 12 -17 16 -36
26 -44 23 -17 -6 -37 11 -37 31 0 13 -44 62 -56 62 -12 0 -2 -27 15 -37 22
-14 19 -34 -18 -135 -12 -32 -21 -66 -21 -76 0 -12 -16 -24 -51 -37 -28 -11
-62 -33 -75 -50 l-24 -30 -20 25 c-11 14 -20 19 -20 12 0 -22 20 -53 31 -47 5
4 9 -1 9 -9 0 -46 147 -136 250 -152 41 -7 55 -29 25 -40 -29 -12 -17 -43 21
-53 40 -11 77 0 69 22 -3 6 0 19 5 27 9 13 14 11 36 -14 14 -15 28 -26 31 -22
8 8 83 -53 83 -69 0 -24 -51 -47 -109 -48 -54 -2 -56 -1 -59 26 -3 20 -9 27
-26 27 -12 0 -27 5 -33 11 -16 16 -43 3 -43 -21 0 -11 -4 -20 -9 -20 -5 0 -18
-3 -28 -6 -13 -4 -12 -1 6 14 17 13 22 26 18 41 -3 12 0 34 6 50 13 36 -5 65
-39 58 -13 -2 -26 3 -33 16 -9 13 -21 18 -41 15 -19 -3 -31 1 -39 14 -7 11
-23 18 -40 18 -17 0 -33 5 -36 11 -4 6 -13 8 -21 5 -9 -3 -14 1 -14 14 0 29
-16 33 -55 14 -28 -13 -35 -22 -35 -45 0 -30 30 -55 56 -45 8 3 14 -1 14 -8 0
-18 -27 -39 -40 -31 -5 3 -10 1 -10 -4 0 -6 -9 -11 -20 -11 -16 0 -20 -7 -20
-38 0 -46 29 -71 54 -47 10 10 17 12 21 4 4 -6 13 -8 21 -5 8 3 24 0 34 -7 16
-9 24 -9 40 0 20 13 50 8 50 -8 0 -5 -11 -9 -25 -9 -14 0 -25 -3 -25 -7 0 -5
-15 -8 -32 -9 -45 0 -60 -6 -80 -28 -15 -15 -20 -16 -33 -6 -10 8 -15 9 -15 2
0 -6 9 -16 20 -22 11 -6 20 -21 20 -35 0 -13 15 -43 33 -67 33 -43 34 -44 29
-133 -2 -50 -8 -94 -13 -99 -12 -13 -12 -46 0 -46 5 0 14 6 21 14 6 8 18 12
26 9 8 -3 14 0 14 6 0 12 29 15 54 5 9 -3 16 -15 16 -26 0 -12 -4 -17 -12 -12
-6 4 -16 0 -23 -9 -7 -9 -23 -18 -36 -20 -34 -5 -40 -68 -8 -91 26 -18 59 -6
59 22 1 13 7 10 27 -13 26 -30 26 -30 5 -33 -18 -3 -22 -10 -22 -38 0 -28 5
-36 28 -45 31 -12 55 -2 61 27 2 10 12 25 22 32 11 7 19 17 19 22 0 5 23 32
50 60 28 28 50 55 50 60 0 5 12 15 27 22 35 17 38 29 11 58 -13 13 -28 33 -33
44 -6 11 -21 23 -35 26 l-25 6 22 12 c19 10 23 9 28 -8 3 -11 13 -20 21 -20
17 0 56 21 66 35 13 17 9 45 -7 45 -8 0 -15 5 -15 11 0 6 7 9 15 5 8 -3 19 3
25 12 8 15 11 15 20 2 8 -13 10 -12 10 3 0 11 4 15 12 11 6 -4 16 0 22 8 16
22 43 29 71 18 22 -8 23 -12 14 -40 -6 -16 -15 -30 -20 -30 -5 0 -9 -8 -9 -19
0 -10 -7 -24 -15 -31 -8 -7 -15 -16 -15 -21 0 -5 -8 -18 -17 -29 l-18 -21 -5
22 c-8 34 -38 48 -54 27 -7 -10 -18 -18 -23 -18 -13 0 -25 -39 -16 -53 3 -5
16 -6 29 -3 13 4 24 3 24 -1 -1 -12 -37 -53 -47 -53 -14 0 -92 -89 -121 -139
-16 -28 -26 -58 -25 -83 0 -21 -3 -38 -8 -38 -5 0 -9 -9 -9 -19 0 -11 -4 -23
-10 -26 -15 -9 -12 -25 4 -25 8 0 17 13 21 30 7 32 26 51 33 32 2 -8 29 -12
72 -12 69 0 69 0 104 -42 19 -24 49 -52 65 -63 31 -20 42 -57 20 -70 -7 -5 -3
-16 12 -31 25 -26 41 -23 38 9 -1 12 2 30 6 40 4 10 5 21 2 24 -4 3 5 19 18
35 14 16 25 34 25 39 0 6 4 7 10 4 5 -3 7 -18 4 -33 -5 -23 -1 -29 23 -39 l28
-11 -27 -1 c-24 -1 -28 -5 -28 -29 0 -20 7 -30 29 -40 44 -19 64 -7 59 39 -3
38 -3 39 29 39 31 0 32 -1 26 -35 -5 -30 -2 -36 20 -44 18 -7 36 -7 57 0 25 9
30 16 30 45 l0 34 -42 -5 c-37 -5 -40 -4 -21 6 25 13 36 36 26 52 -3 6 -8 22
-9 36 -1 14 -5 46 -7 70 -2 24 -11 47 -18 52 -11 6 -11 11 -1 21 6 6 12 22 12
35 0 22 -3 23 -80 23 -73 0 -80 2 -80 20 0 16 7 20 30 20 28 0 30 2 30 41 0
32 -4 42 -19 46 -15 4 -17 10 -11 36 14 61 30 112 39 127 16 24 56 -29 79
-104 l20 -67 -37 3 c-36 3 -36 3 -39 -39 -3 -42 -2 -43 27 -43 33 0 55 27 45
54 -3 9 -2 16 4 16 6 0 11 -53 14 -127 2 -71 9 -137 15 -148 6 -11 17 -35 24
-53 6 -18 22 -41 35 -51 13 -11 24 -28 24 -39 0 -12 5 -24 10 -27 6 -3 10 -15
10 -26 0 -10 -4 -19 -10 -19 -5 0 -10 -5 -10 -11 0 -19 24 -4 41 27 10 16 18
45 18 64 1 27 10 43 41 73 22 20 40 44 40 52 0 12 15 15 69 15 39 0 73 -4 76
-10 3 -5 11 -10 17 -10 6 0 6 6 -2 15 -16 19 -9 28 14 19 12 -4 16 -14 14 -28
-3 -16 1 -22 14 -22 12 0 17 5 13 14 -3 8 0 12 7 9 7 -2 13 -13 12 -25 0 -13
4 -18 13 -15 23 9 14 41 -19 67 -24 18 -32 32 -30 51 1 14 -5 39 -13 56 -14
26 -14 29 0 29 9 0 15 -9 15 -21 0 -18 4 -20 25 -15 22 6 25 3 25 -23 0 -25 4
-29 33 -34 54 -8 92 50 53 82 -16 13 -61 0 -69 -21 -4 -9 -6 -7 -6 4 -1 9 6
21 14 26 9 4 24 24 34 43 22 41 35 43 39 7 5 -42 25 -52 56 -27 19 15 26 30
26 55 0 33 -2 35 -29 31 -17 -3 -35 -8 -41 -12 -7 -4 -10 0 -8 11 2 13 -4 20
-18 22 -12 2 -24 12 -27 22 -3 11 -18 22 -33 26 -16 4 -40 16 -54 26 -15 12
-33 17 -46 14 -18 -5 -23 -1 -26 16 -4 32 -62 33 -66 2 -2 -12 -14 -27 -28
-34 -13 -7 -24 -19 -24 -26 0 -8 -6 -11 -15 -8 -12 5 -10 10 8 25 l22 19 -33
30 c-24 22 -39 29 -54 25 -21 -7 -68 28 -68 51 0 6 -7 17 -16 24 -8 8 -14 25
-12 39 3 22 7 26 33 23 16 -2 33 -9 37 -15 4 -7 8 -9 8 -4 0 4 14 0 31 -8 17
-9 33 -14 37 -11 7 7 32 -13 32 -26 0 -6 -6 -8 -14 -5 -7 3 -18 1 -24 -5 -12
-12 -35 -1 -27 13 8 11 -25 12 -43 0 -18 -11 -12 -41 11 -55 15 -9 21 -7 33 8
12 17 14 18 14 3 0 -10 15 -23 37 -32 32 -14 39 -14 51 -1 13 13 13 18 -2 40
-23 36 -12 33 48 -12 28 -21 68 -47 89 -57 20 -9 37 -21 37 -25 0 -12 107 -33
144 -27 31 5 37 2 56 -26 l21 -32 -7 35 c-3 19 -12 39 -18 43 -7 6 -7 7 3 5 7
-2 24 -23 36 -46 13 -24 26 -39 29 -33 11 18 -5 58 -35 87 -19 19 -29 38 -29
58 0 17 -4 48 -9 68 -7 32 -5 40 14 58 13 12 29 35 35 50 7 17 17 27 25 24 17
-7 35 26 35 63 0 22 -2 25 -10 13 -8 -12 -11 -13 -19 -1 -7 11 -9 11 -14 0 -4
-11 -6 -10 -6 1 -1 20 -58 41 -87 34 -25 -7 -39 9 -21 24 6 6 26 12 42 14 30
3 30 3 27 61 -4 88 -52 167 -77 127 -3 -5 -17 -10 -30 -10 -23 0 -21 3 20 41
25 23 45 50 45 60 0 11 5 19 10 19 6 0 10 -4 10 -10 0 -5 5 -10 10 -10 6 0 10
9 10 20 0 10 7 23 16 28 11 6 14 14 9 22 -6 10 -11 7 -17 -9 -5 -14 -14 -21
-22 -18 -8 3 -17 1 -20 -6 -2 -7 -5 -2 -5 11 -1 12 -7 22 -15 22 -7 0 -19 7
-26 16 -14 16 -79 48 -92 46 -5 -1 -8 9 -8 22 0 13 -6 36 -14 51 -10 19 -12
49 -9 106 5 69 4 79 -11 79 -12 0 -15 -6 -10 -24 4 -18 1 -26 -14 -30 -11 -4
-22 -16 -25 -26 -3 -14 -14 -20 -31 -20 -14 0 -26 -4 -26 -10 0 -5 -10 -12
-22 -15 -26 -7 -88 -89 -139 -182 -19 -35 -37 -63 -41 -63 -4 0 -8 12 -10 27
-2 14 -8 28 -15 30 -20 7 -53 -35 -53 -66 0 -26 -3 -30 -27 -28 -25 2 -28 -2
-28 -27 0 -42 21 -43 45 -3 16 27 27 34 52 35 l31 1 -63 -64 c-34 -35 -71 -66
-81 -68 -24 -6 -33 37 -24 109 6 48 9 54 29 54 51 0 77 81 29 88 -25 4 -27 10
-14 31 6 9 11 10 15 2 4 -6 16 -11 27 -11 10 0 28 -9 39 -20 36 -36 71 -23 85
33 4 15 13 27 20 27 7 0 18 14 25 30 7 17 20 36 30 43 9 7 25 27 35 46 17 34
17 34 -6 52 -13 10 -31 19 -39 19 -9 0 -23 9 -33 20 -16 19 -15 20 4 30 47 26
1 93 -56 82 -35 -6 -33 -44 3 -72 l27 -22 -40 3 c-38 4 -40 2 -38 -22 1 -15
-4 -26 -12 -26 -19 0 -28 89 -14 135 6 21 9 48 7 60 l-3 22 -28 -26z m13 -24
c0 -5 -4 -10 -10 -10 -5 0 -10 5 -10 10 0 6 5 10 10 10 6 0 10 -4 10 -10z
m-94 -126 c-7 -35 -8 -35 -27 -18 -19 18 -19 18 3 40 29 27 32 24 24 -22z
m-177 10 c8 -7 -10 -34 -23 -34 -10 0 -13 6 -9 16 3 9 0 20 -8 26 -10 6 -6 7
11 2 14 -3 27 -8 29 -10z m-75 -18 c6 -25 -1 -56 -13 -56 -4 0 -7 18 -8 40 -2
44 11 54 21 16z m305 -38 c1 -5 -5 -8 -13 -8 -9 0 -12 8 -8 27 5 25 6 25 13 8
4 -11 8 -23 8 -27z m-129 2 c21 -11 41 -24 45 -30 9 -15 -18 -121 -30 -117 -5
2 -9 21 -8 43 5 66 -3 84 -37 84 -21 0 -31 -5 -32 -17 -1 -10 -2 -25 -4 -33
-1 -8 -2 -19 -3 -24 -3 -22 -31 20 -31 45 0 22 6 32 25 39 14 5 25 14 25 20 0
14 5 13 50 -10z m537 -50 c-1 -11 -4 -20 -8 -20 -4 0 -6 11 -5 24 0 13 4 22 8
20 4 -2 6 -13 5 -24z m-681 -40 c1 -41 -9 -53 -20 -24 -10 27 -7 64 7 64 7 0
12 -15 13 -40z m254 20 c0 -19 -26 -80 -34 -80 -6 0 0 52 8 78 9 28 26 29 26
2z m90 4 c0 -2 -7 -4 -15 -4 -8 0 -15 4 -15 10 0 5 7 7 15 4 8 -4 15 -8 15
-10z m-36 -85 c-3 -5 -11 -9 -19 -9 -11 0 -11 6 -2 30 11 28 12 29 19 9 5 -11
6 -25 2 -30z m-560 17 c-5 -13 -9 -14 -21 -4 -13 10 -13 13 4 19 23 8 25 6 17
-15z m849 -2 c-3 -9 -16 -19 -29 -24 -15 -6 -21 -15 -18 -27 3 -11 -6 -29 -25
-47 -22 -21 -31 -25 -31 -14 0 8 9 23 20 33 11 10 17 21 14 26 -6 10 57 77 68
72 4 -2 4 -11 1 -19z m-1007 -18 c12 -26 2 -46 -23 -46 -14 0 -16 13 -7 48 8
28 16 28 30 -2z m69 14 c3 -5 3 -15 -1 -21 -6 -11 -23 6 -24 24 0 10 18 9 25
-3z m730 -10 c3 -5 2 -10 -4 -10 -5 0 -13 5 -16 10 -3 6 -2 10 4 10 5 0 13 -4
16 -10z m271 -15 c7 -29 1 -41 -15 -30 -14 8 -14 55 -1 55 5 0 12 -11 16 -25z
m-541 -5 c-3 -5 -10 -10 -16 -10 -5 0 -9 5 -9 10 0 6 7 10 16 10 8 0 12 -4 9
-10z m45 -57 c0 -64 -1 -66 -17 -50 -15 14 -15 22 -6 47 6 16 7 32 3 35 -11 7
-2 35 11 35 5 0 9 -30 9 -67z m-380 25 c0 -19 -2 -20 -10 -8 -13 19 -13 30 0
30 6 0 10 -10 10 -22z m-80 -2 c6 -8 10 -24 8 -34 -2 -16 -6 -14 -20 14 -18
34 -11 46 12 20z m-48 -43 c14 -16 29 -39 33 -53 l8 -24 -36 27 c-20 15 -47
27 -61 27 -23 0 -26 -4 -26 -35 0 -19 5 -35 10 -35 6 0 10 -4 10 -10 0 -5 -10
-8 -22 -6 -40 5 -37 106 3 106 11 0 22 7 25 15 9 22 27 18 56 -12z m1004 0
c14 -9 23 -28 27 -56 5 -35 3 -45 -16 -59 -12 -10 -28 -16 -34 -13 -7 2 -13 0
-13 -5 0 -6 -4 -10 -10 -10 -21 0 -9 31 15 40 31 12 40 32 25 59 -13 26 -80
31 -80 6 0 -8 -4 -15 -10 -15 -5 0 -9 11 -8 24 1 15 7 22 15 19 8 -3 13 3 13
16 0 18 4 20 28 15 15 -4 37 -13 48 -21z m-1166 -47 c0 -28 -10 -38 -27 -28
-13 8 1 52 17 52 5 0 10 -11 10 -24z m1267 2 c13 -12 23 -25 23 -30 0 -17 -29
-7 -44 14 -29 42 -16 51 21 16z m-1324 -23 c-3 -9 -8 -14 -10 -11 -3 3 -2 9 2
15 9 16 15 13 8 -4z m717 -3 c0 -24 -8 -32 -26 -25 -10 4 -11 10 -3 24 12 24
29 25 29 1z m360 -17 c0 -8 -7 -15 -16 -15 -14 0 -14 3 -4 15 7 8 14 15 16 15
2 0 4 -7 4 -15z m-738 -48 c32 -32 34 -37 15 -37 -8 0 -28 18 -45 39 -53 66
-37 64 30 -2z m-313 17 c5 3 11 -1 15 -9 9 -25 -32 -18 -45 8 -11 20 -11 21 4
9 9 -8 20 -11 26 -8z m1312 -17 c-16 -16 -26 0 -10 19 9 11 15 12 17 4 2 -6
-1 -17 -7 -23z m-634 -19 c-2 -7 -14 -12 -25 -10 -15 2 -22 -2 -22 -12 0 -9
-4 -16 -10 -16 -17 0 -11 38 8 43 34 9 54 7 49 -5z m583 -2 c0 -7 -12 -16 -27
-19 -16 -3 -37 -9 -47 -13 -19 -7 -19 -7 0 13 10 11 24 18 30 16 7 -3 15 0 19
6 9 15 25 14 25 -3z m-1162 -16 c16 -26 1 -26 -29 0 -23 18 -23 19 -4 20 11 0
26 -9 33 -20z m922 -47 c-47 -40 -61 -46 -68 -25 -2 7 2 10 11 6 10 -3 22 4
32 20 15 22 30 31 59 35 5 0 -10 -16 -34 -36z m-640 11 c0 -9 -5 -14 -12 -12
-18 6 -21 28 -4 28 9 0 16 -7 16 -16z m905 -14 c-3 -5 -12 -10 -18 -10 -7 0
-6 4 3 10 19 12 23 12 15 0z m-55 -37 c0 -24 -14 -31 -25 -13 -3 6 -16 11 -28
11 -17 1 -18 2 -4 6 9 2 17 8 17 12 0 4 9 7 20 7 14 0 20 -7 20 -23z m-790
-15 c0 -6 -7 -8 -15 -4 -9 3 -15 0 -15 -9 0 -8 -4 -15 -10 -15 -13 0 -13 16 1
41 8 16 13 18 25 8 8 -6 14 -16 14 -21z m692 -15 c-2 -17 1 -34 7 -38 6 -3 11
-22 11 -41 0 -22 5 -36 15 -39 46 -15 50 -19 20 -23 -16 -2 -36 -9 -43 -15
-11 -9 -12 -4 -7 25 8 45 -2 52 -54 36 -31 -10 -41 -18 -45 -41 -4 -19 -10
-26 -18 -21 -7 5 -27 7 -45 5 -19 -1 -33 2 -33 8 0 6 -6 11 -14 11 -20 0 -37
25 -30 43 3 8 16 18 30 21 16 4 24 14 25 29 0 12 3 16 6 10 7 -18 33 -16 33 1
0 8 4 18 10 21 5 3 7 0 4 -9 -9 -23 37 -47 75 -40 38 8 49 28 32 56 -13 21 -6
41 12 35 7 -2 11 -17 9 -34z m-896 17 c8 0 14 -4 14 -10 0 -5 -10 -8 -22 -6
-13 3 -26 5 -30 5 -5 1 -8 6 -8 12 0 6 7 8 16 5 9 -3 22 -6 30 -6z m614 -9 c0
-6 -4 -13 -10 -16 -5 -3 -10 1 -10 9 0 9 5 16 10 16 6 0 10 -4 10 -9z m-900
-11 c0 -5 -5 -10 -11 -10 -5 0 -7 5 -4 10 3 6 8 10 11 10 2 0 4 -4 4 -10z
m515 1 c3 -5 1 -12 -5 -16 -5 -3 -10 1 -10 9 0 18 6 21 15 7z m820 -116 c19
-8 19 -9 -2 -12 -13 -3 -31 -3 -42 -1 -15 2 -17 7 -9 28 8 22 11 23 21 9 7 -8
21 -19 32 -24z m-1231 0 c4 -11 -2 -15 -26 -15 -30 0 -31 1 -12 15 24 18 31
18 38 0z m1281 5 c3 -5 -1 -10 -10 -10 -9 0 -13 5 -10 10 3 6 8 10 10 10 2 0
7 -4 10 -10z m5 -57 c-1 -28 -18 -35 -54 -23 -46 15 -46 22 -1 14 22 -3 35 -1
35 5 0 6 5 11 10 11 6 0 10 -3 10 -7z m-1410 -25 c0 -19 -2 -20 -10 -8 -13 19
-13 30 0 30 6 0 10 -10 10 -22z m125 12 c-4 -6 -11 -7 -17 -4 -6 4 -14 1 -18
-6 -4 -7 -15 -10 -24 -7 -29 11 -17 24 25 25 25 1 38 -2 34 -8z m1335 -5 c0
-8 -4 -15 -10 -15 -5 0 -10 7 -10 15 0 8 5 15 10 15 6 0 10 -7 10 -15z m-1000
-15 c0 -5 -7 -10 -15 -10 -8 0 -15 -9 -15 -20 0 -11 -4 -20 -10 -20 -11 0 -13
20 -4 44 7 17 44 22 44 6z m540 0 c0 -5 -6 -10 -14 -10 -8 0 -16 -6 -19 -12
-2 -7 -7 -10 -11 -7 -3 3 -4 14 0 23 7 17 44 23 44 6z m590 1 c0 -5 -7 -11
-14 -14 -10 -4 -13 -1 -9 9 6 15 23 19 23 5z m-490 -21 c0 -5 -2 -10 -4 -10
-3 0 -8 5 -11 10 -3 6 -1 10 4 10 6 0 11 -4 11 -10z m71 0 c10 0 19 -5 19 -10
0 -12 -50 -2 -65 13 -7 7 -4 8 8 3 10 -3 27 -6 38 -6z m-1181 -25 c0 -7 -6
-18 -14 -24 -11 -9 -16 -6 -24 17 -9 27 -8 29 14 24 13 -2 24 -10 24 -17z
m275 15 c4 -7 -3 -8 -22 -4 -38 9 -42 14 -10 14 14 0 29 -5 32 -10z m1046 -13
c4 -5 9 -4 12 4 4 12 7 11 16 -1 6 -8 11 -10 11 -5 0 6 11 12 25 13 20 1 26
-4 35 -36 14 -51 14 -49 -22 -94 -26 -34 -33 -37 -40 -24 -5 9 -13 14 -17 11
-5 -2 -14 2 -21 10 -10 12 -10 15 2 15 8 0 18 -4 24 -10 6 -6 18 -4 32 6 26
18 27 62 2 75 -22 11 -95 31 -122 34 -12 1 -29 3 -35 4 -7 0 -13 5 -13 10 0
11 103 1 111 -12z m-1241 1 c0 -9 3 -8 10 2 7 12 12 12 22 2 10 -10 10 -15 -2
-22 -8 -5 -23 -10 -32 -10 -23 0 -24 -56 -3 -84 12 -16 17 -17 30 -6 8 7 18
10 21 7 3 -3 17 -2 30 3 14 6 26 6 29 0 4 -6 2 -10 -4 -10 -5 0 -22 -5 -38
-12 -46 -19 -62 -17 -89 15 -20 24 -24 36 -18 61 11 49 44 90 44 54z m113 5
c-7 -2 -19 -2 -25 0 -7 3 -2 5 12 5 14 0 19 -2 13 -5z m1307 -3 c0 -3 -9 -16
-20 -30 l-20 -25 0 32 c0 26 4 31 20 30 11 -1 20 -4 20 -7z m-1350 -10 c0 -5
-4 -10 -10 -10 -5 0 -10 5 -10 10 0 6 5 10 10 10 6 0 10 -4 10 -10z m210 -39
c0 -5 -7 -11 -14 -14 -10 -4 -13 -1 -9 9 6 15 23 19 23 5z m-56 -19 c2 -4 -4
-9 -15 -9 -11 -1 -17 2 -14 8 7 11 22 12 29 1z m304 -93 c-22 -12 -23 -38 -3
-45 15 -6 21 -24 8 -24 -5 0 -18 8 -30 18 l-22 17 21 33 c15 25 24 30 32 22 8
-8 6 -14 -6 -21z m242 3 c-13 -2 -20 -11 -20 -25 0 -17 -2 -19 -9 -8 -6 9 -5
23 1 37 9 19 13 21 30 11 18 -12 18 -12 -2 -15z m614 -25 c5 -21 3 -28 -5 -25
-20 7 -33 34 -25 53 8 22 21 10 30 -28z m-1441 15 c16 -17 15 -20 -8 -42 -26
-25 -32 -21 -15 10 7 13 7 21 0 25 -12 8 -13 25 -2 25 5 0 16 -8 25 -18z m177
-2 c0 -5 -4 -10 -10 -10 -5 0 -10 5 -10 10 0 6 5 10 10 10 6 0 10 -4 10 -10z
m1126 -16 c33 -6 49 -34 19 -34 -8 0 -15 3 -15 8 0 4 -10 12 -22 17 -12 6 -23
16 -24 23 -1 7 0 8 2 3 3 -6 21 -13 40 -17z m-449 -16 c-3 -7 -5 -2 -5 12 0
14 2 19 5 13 2 -7 2 -19 0 -25z m-719 10 c-3 -7 -15 -15 -28 -16 -21 -3 -22
-2 -11 12 16 19 44 21 39 4z m-88 -43 c-7 -9 -15 -13 -17 -11 -7 7 7 26 19 26
6 0 6 -6 -2 -15z m150 -4 c0 -14 -5 -18 -20 -14 -19 5 -20 6 -3 19 23 17 23
17 23 -5z m1195 9 c3 -5 3 -15 -1 -21 -6 -11 -23 6 -24 24 0 10 18 9 25 -3z
m-1375 -16 c0 -8 -5 -12 -10 -9 -6 4 -8 11 -5 16 9 14 15 11 15 -7z m110 -44
c0 -18 -3 -19 -20 -8 -14 9 -16 14 -7 20 20 13 27 9 27 -12z m450 13 c0 -5 -5
-15 -10 -23 -8 -12 -10 -11 -10 8 0 12 5 22 10 22 6 0 10 -3 10 -7z m357 -20
c-4 -3 0 -15 10 -25 22 -24 8 -36 -16 -14 -20 18 -18 46 2 46 6 0 7 -3 4 -7z
m-447 -12 c0 -5 -7 -11 -14 -14 -10 -4 -13 -1 -9 9 6 15 23 19 23 5z m58 -56
c-7 -16 -15 -22 -21 -16 -13 13 -1 41 17 41 13 0 14 -4 4 -25z m602 -7 c0 -18
-1 -18 -24 -1 -27 21 -25 34 4 26 11 -3 20 -14 20 -25z m-1000 -8 c0 -5 -2
-10 -4 -10 -3 0 -8 5 -11 10 -3 6 -1 10 4 10 6 0 11 -4 11 -10z m850 -21 c0
-11 -11 -11 -29 0 -7 5 -10 14 -6 20 5 9 10 9 21 0 8 -6 14 -15 14 -20z m-650
-9 c-6 -11 -15 -20 -20 -20 -5 0 -10 -10 -12 -22 -3 -23 -28 -38 -28 -17 0 11
58 79 67 79 2 0 -1 -9 -7 -20z m72 -2 c-7 -7 -12 -8 -12 -2 0 14 12 26 19 19
2 -3 -1 -11 -7 -17z m102 -15 c-5 -17 -9 -19 -19 -10 -10 9 -9 14 4 24 20 14
22 13 15 -14z m603 -49 c-8 -8 -67 53 -67 69 0 7 17 -5 37 -25 20 -21 34 -40
30 -44z m68 66 c-3 -5 -11 -10 -16 -10 -6 0 -7 5 -4 10 3 6 11 10 16 10 6 0 7
-4 4 -10z m-152 -49 c15 -16 27 -33 27 -39 0 -5 -13 -27 -29 -49 -24 -33 -35
-40 -65 -41 -29 -1 -36 2 -36 18 0 10 -4 22 -10 25 -14 9 -12 35 3 35 7 0 17
-10 22 -22 13 -29 45 -35 62 -12 18 25 16 51 -8 85 -27 39 -3 39 34 0z m-645
-48 c6 -39 11 -49 29 -51 18 -3 27 6 45 42 32 67 48 60 30 -14 l-15 -60 -42 0
c-38 0 -43 3 -63 39 -25 43 -28 71 -10 89 16 16 18 12 26 -45z m478 -31 c-3
-5 1 -18 9 -28 8 -10 15 -22 15 -26 0 -8 -40 2 -41 11 -1 8 -6 33 -14 72 l-7
34 21 -27 c12 -15 20 -32 17 -36z m-606 35 c0 -8 -10 -22 -21 -33 -15 -13 -20
-14 -15 -4 3 8 9 23 12 33 7 20 24 23 24 4z m295 -35 c3 -21 -2 -36 -17 -48
-20 -19 -20 -19 -14 24 9 70 24 81 31 24z m67 -4 c-14 -14 -16 -68 -2 -68 6 0
10 -4 10 -9 0 -5 -9 -7 -20 -4 -17 5 -20 11 -14 42 10 64 15 74 27 62 8 -8 8
-14 -1 -23z m541 12 c3 -11 4 -20 3 -20 -2 0 -11 9 -21 20 -15 17 -16 20 -3
20 9 0 18 -9 21 -20z m-855 -44 c3 -12 -1 -17 -10 -14 -7 3 -15 13 -16 22 -3
12 1 17 10 14 7 -3 15 -13 16 -22z m814 14 c22 0 -1 -25 -25 -27 -30 -2 -30
-2 -21 22 4 9 13 14 21 11 8 -3 19 -6 25 -6z m-652 -90 c0 -16 -2 -30 -4 -30
-3 0 -14 14 -26 30 l-21 30 25 0 c22 0 26 -4 26 -30z m57 0 c-11 -19 -27 -27
-27 -14 0 15 22 44 30 39 6 -4 5 -14 -3 -25z m443 21 c0 -5 -8 -17 -17 -27
-18 -18 -30 -6 -19 21 6 16 36 21 36 6z m-77 -31 c3 -11 2 -20 -3 -20 -8 0
-20 24 -20 41 0 17 17 1 23 -21z m34 -117 c-3 -10 -5 -4 -5 12 0 17 2 24 5 18
2 -7 2 -21 0 -30z m-431 -40 c-10 -10 -19 5 -10 18 6 11 8 11 12 0 2 -7 1 -15
-2 -18z"/>
<path d="M1641 1441 c-12 -8 -13 -14 -3 -35 13 -30 24 -32 45 -11 32 32 -4 70
-42 46z"/>
<path d="M832 2244 c4 -21 22 -23 26 -1 2 10 -3 17 -13 17 -10 0 -15 -6 -13
-16z"/>
<path d="M1780 2239 c0 -11 5 -17 10 -14 6 3 10 13 10 21 0 8 -4 14 -10 14 -5
0 -10 -9 -10 -21z"/>
<path d="M980 2221 c0 -6 5 -13 10 -16 6 -3 10 1 10 9 0 9 -4 16 -10 16 -5 0
-10 -4 -10 -9z"/>
<path d="M1630 2215 c0 -8 5 -15 10 -15 6 0 10 7 10 15 0 8 -4 15 -10 15 -5 0
-10 -7 -10 -15z"/>
<path d="M893 2205 c-3 -9 -3 -18 0 -21 9 -9 27 6 27 22 0 19 -19 18 -27 -1z"/>
<path d="M1720 2206 c0 -17 14 -29 23 -20 8 8 -3 34 -14 34 -5 0 -9 -6 -9 -14z"/>
<path d="M830 2150 c0 -5 5 -10 11 -10 5 0 7 5 4 10 -3 6 -8 10 -11 10 -2 0
-4 -4 -4 -10z"/>
<path d="M1790 2146 c0 -9 5 -16 10 -16 6 0 10 4 10 9 0 6 -4 13 -10 16 -5 3
-10 -1 -10 -9z"/>
<path d="M1733 2130 c-16 -6 -23 -18 -23 -35 0 -20 8 -29 36 -41 20 -8 43 -13
50 -10 22 8 17 56 -8 77 -26 21 -25 21 -55 9z"/>
<path d="M735 2030 c3 -5 8 -10 11 -10 2 0 4 5 4 10 0 6 -5 10 -11 10 -5 0 -7
-4 -4 -10z"/>
<path d="M2141 1742 c-28 -39 -25 -47 7 -21 13 10 22 26 20 36 -3 14 -8 11
-27 -15z"/>
<path d="M471 1734 c0 -11 3 -14 6 -6 3 7 2 16 -1 19 -3 4 -6 -2 -5 -13z"/>
<path d="M495 1730 c3 -5 8 -10 11 -10 2 0 4 5 4 10 0 6 -5 10 -11 10 -5 0 -7
-4 -4 -10z"/>
<path d="M1149 1674 c-9 -11 -10 -20 -3 -32 16 -25 33 -26 43 0 16 43 -12 66
-40 32z"/>
<path d="M2128 1653 c-27 -7 -25 -79 3 -93 42 -23 60 11 43 78 -6 22 -13 24
-46 15z"/>
<path d="M193 1643 c-7 -2 -13 -16 -13 -29 0 -15 -6 -24 -15 -24 -8 0 -15 -7
-15 -15 0 -8 6 -15 14 -15 8 0 17 -6 19 -12 4 -10 8 -10 15 1 8 11 14 10 33
-8 20 -19 24 -19 32 -6 5 9 6 23 3 30 -3 8 -1 17 4 20 13 8 13 42 1 49 -20 13
-43 -6 -37 -30 4 -14 2 -24 -4 -24 -5 0 -10 16 -10 35 0 35 -3 38 -27 28z"/>
<path d="M420 1639 c0 -5 5 -7 10 -4 6 3 10 8 10 11 0 2 -4 4 -10 4 -5 0 -10
-5 -10 -11z"/>
<path d="M2200 1634 c0 -8 5 -12 10 -9 6 3 10 10 10 16 0 5 -4 9 -10 9 -5 0
-10 -7 -10 -16z"/>
<path d="M2422 1641 c-9 -6 -11 -19 -7 -44 8 -40 35 -72 42 -49 3 6 9 10 14 6
5 -3 9 9 9 26 0 18 -4 29 -10 25 -6 -4 -10 5 -10 19 0 26 -14 33 -38 17z"/>
<path d="M2366 1631 c-10 -15 5 -89 19 -101 20 -17 24 1 11 52 -13 52 -21 65
-30 49z"/>
<path d="M325 1610 c-7 -12 2 -30 16 -30 12 0 12 27 0 35 -5 3 -12 1 -16 -5z"/>
<path d="M2286 1613 c-12 -12 -6 -33 9 -33 8 0 15 6 15 14 0 17 -14 28 -24 19z"/>
<path d="M376 1554 c-4 -10 -1 -14 6 -12 15 5 23 28 10 28 -5 0 -13 -7 -16
-16z"/>
<path d="M2240 1555 c0 -8 5 -15 10 -15 6 0 10 7 10 15 0 8 -4 15 -10 15 -5 0
-10 -7 -10 -15z"/>
<path d="M316 1543 c-12 -12 -6 -33 9 -33 8 0 15 6 15 14 0 17 -14 28 -24 19z"/>
<path d="M2305 1540 c-7 -12 2 -30 16 -30 12 0 12 27 0 35 -5 3 -12 1 -16 -5z"/>
<path d="M2168 1506 c-39 -14 -36 -70 4 -95 19 -12 23 -11 35 5 16 22 16 64 0
84 -9 13 -18 14 -39 6z"/>
<path d="M2240 1460 c0 -19 3 -21 12 -12 9 9 9 15 0 24 -9 9 -12 7 -12 -12z"/>
<path d="M380 1460 c0 -5 5 -10 10 -10 6 0 10 5 10 10 0 6 -4 10 -10 10 -5 0
-10 -4 -10 -10z"/>
<path d="M957 1428 c-4 -12 -1 -28 5 -35 9 -11 15 -10 34 8 27 25 21 49 -11
49 -15 0 -25 -7 -28 -22z"/>
<path d="M2233 1335 c-35 -34 -28 -53 7 -20 29 28 38 46 23 44 -5 -1 -18 -11
-30 -24z"/>
<path d="M391 1334 c0 -11 3 -14 6 -6 3 7 2 16 -1 19 -3 4 -6 -2 -5 -13z"/>
<path d="M420 1312 c0 -12 19 -26 26 -19 2 2 -2 10 -11 17 -9 8 -15 8 -15 2z"/>
<path d="M1031 1136 c-10 -11 -10 -20 -1 -37 10 -18 14 -19 25 -8 7 8 16 24
20 37 5 17 2 22 -13 22 -11 0 -25 -6 -31 -14z"/>
<path d="M1307 1023 c-14 -13 -7 -64 9 -70 23 -9 35 10 28 45 -6 30 -22 41
-37 25z"/>
<path d="M500 1005 c-7 -9 -11 -18 -8 -20 3 -3 11 1 18 10 7 9 11 18 8 20 -3
3 -11 -1 -18 -10z"/>
<path d="M470 959 c0 -5 5 -7 10 -4 6 3 10 8 10 11 0 2 -4 4 -10 4 -5 0 -10
-5 -10 -11z"/>
<path d="M490 935 c-8 -9 -8 -15 -2 -15 12 0 26 19 19 26 -2 2 -10 -2 -17 -11z"/>
<path d="M520 831 c0 -5 5 -13 10 -16 6 -3 10 -2 10 4 0 5 -4 13 -10 16 -5 3
-10 2 -10 -4z"/>
<path d="M2090 825 c0 -8 5 -15 10 -15 6 0 10 7 10 15 0 8 -4 15 -10 15 -5 0
-10 -7 -10 -15z"/>
<path d="M560 763 c0 -14 19 -38 25 -32 8 8 -5 39 -16 39 -5 0 -9 -3 -9 -7z"/>
<path d="M2056 754 c-8 -21 -8 -24 3 -24 12 0 22 28 12 35 -5 3 -12 -2 -15
-11z"/>
<path d="M490 740 c0 -11 5 -20 10 -20 6 0 10 9 10 20 0 11 -4 20 -10 20 -5 0
-10 -9 -10 -20z"/>
<path d="M2120 741 c0 -12 5 -21 10 -21 6 0 10 6 10 14 0 8 -4 18 -10 21 -5 3
-10 -3 -10 -14z"/>
<path d="M442 698 c-17 -17 -15 -38 3 -38 8 0 15 -5 15 -11 0 -11 24 -39 34
-39 15 0 4 62 -14 80 -24 24 -23 23 -38 8z"/>
<path d="M544 697 c-9 -24 6 -44 18 -22 7 11 6 21 -1 28 -7 7 -12 6 -17 -6z"/>
<path d="M2076 703 c-12 -12 -6 -33 9 -33 8 0 15 6 15 14 0 17 -14 28 -24 19z"/>
<path d="M2167 679 c-32 -37 -34 -49 -7 -49 11 0 20 6 20 14 0 7 9 16 21 19
13 4 19 12 17 23 -5 28 -22 26 -51 -7z"/>
<path d="M640 690 c0 -5 5 -10 10 -10 6 0 10 5 10 10 0 6 -4 10 -10 10 -5 0
-10 -4 -10 -10z"/>
<path d="M1980 690 c0 -5 5 -10 10 -10 6 0 10 5 10 10 0 6 -4 10 -10 10 -5 0
-10 -4 -10 -10z"/>
<path d="M2222 668 c-7 -7 -12 -18 -12 -25 0 -7 -7 -13 -15 -13 -19 0 -20 -34
-1 -49 11 -9 17 -8 28 7 7 11 18 20 23 21 13 1 13 63 0 68 -6 2 -16 -2 -23 -9z"/>
<path d="M390 642 c0 -10 13 -31 28 -46 24 -22 31 -24 40 -13 9 10 6 21 -11
45 -24 35 -57 43 -57 14z"/>
<path d="M745 650 c-3 -5 -1 -10 4 -10 6 0 11 5 11 10 0 6 -2 10 -4 10 -3 0
-8 -4 -11 -10z"/>
<path d="M805 629 c-11 -17 0 -20 21 -4 17 13 17 14 2 15 -9 0 -20 -5 -23 -11z"/>
<path d="M1220 410 c0 -5 5 -10 10 -10 6 0 10 5 10 10 0 6 -4 10 -10 10 -5 0
-10 -4 -10 -10z"/>
<path d="M1400 410 c0 -5 5 -10 10 -10 6 0 10 5 10 10 0 6 -4 10 -10 10 -5 0
-10 -4 -10 -10z"/>
<path d="M1310 386 c0 -8 5 -18 10 -21 6 -3 10 3 10 14 0 12 -4 21 -10 21 -5
0 -10 -6 -10 -14z"/>
<path d="M1340 331 c0 -12 5 -21 10 -21 6 0 10 6 10 14 0 8 -4 18 -10 21 -5 3
-10 -3 -10 -14z"/>
<path d="M1267 334 c-8 -8 1 -24 14 -24 5 0 9 7 9 15 0 15 -12 20 -23 9z"/>
<path d="M1282 278 c-16 -16 -15 -33 3 -48 13 -11 15 -7 15 24 0 40 -1 41 -18
24z"/>
<path d="M1333 274 c-15 -16 -17 -44 -3 -44 6 0 10 -4 10 -10 0 -5 -13 -10
-30 -10 -27 0 -30 -3 -30 -30 0 -28 2 -30 40 -30 l40 0 0 64 c0 68 -7 83 -27
60z"/>
</g>
</svg>
